<svg width="252" height="336" viewBox="0 0 252 336" fill="none" xmlns="http://www.w3.org/2000/svg">
<g clip-path="url(#clip0_22_6976)">
<mask id="mask0_22_6976" style="mask-type:luminance" maskUnits="userSpaceOnUse" x="-174" y="-132" width="600" height="600">
<path d="M426 -132H-174V468H426V-132Z" fill="white"/>
</mask>
<g mask="url(#mask0_22_6976)">
<path d="M125.994 84.0276L0.360352 23.7998V251.216C0.360352 277.089 24.1937 286.155 47.2103 298.061C72.9881 311.394 125.999 335.883 125.999 335.883C125.999 335.883 179.005 311.4 204.788 298.061C227.799 286.155 251.638 277.089 251.638 251.216V23.7998L125.994 84.0276ZM232.105 251.211C232.105 260.867 225.199 265.889 203.027 277.044C200.633 278.244 198.221 279.455 195.805 280.7C176.716 290.583 141.827 306.961 125.999 314.333C110.171 306.961 75.2826 290.583 56.1937 280.7C53.7881 279.455 51.377 278.244 48.9715 277.044C26.7992 265.889 19.8937 260.867 19.8937 251.211V54.8443L126.005 105.7L232.116 54.8443L232.105 251.211Z" fill="#BA9B6E"/>
<g style="mix-blend-mode:multiply">
<mask id="mask1_22_6976" style="mask-type:luminance" maskUnits="userSpaceOnUse" x="0" y="23" width="252" height="313">
<path d="M251.632 23.7998H0.359375V335.883H251.632V23.7998Z" fill="white"/>
</mask>
<g mask="url(#mask1_22_6976)">
<mask id="mask2_22_6976" style="mask-type:luminance" maskUnits="userSpaceOnUse" x="0" y="23" width="252" height="313">
<path d="M125.992 84.0276L0.358398 23.7998V251.216C0.358398 277.089 24.1973 286.155 47.2084 298.061C72.9862 311.394 125.997 335.883 125.997 335.883C125.997 335.883 179.003 311.4 204.786 298.061C227.797 286.155 251.636 277.089 251.636 251.216V23.7998L125.992 84.0276ZM232.103 251.211C232.103 260.867 225.197 265.889 203.025 277.039C200.631 278.244 198.219 279.455 195.803 280.7C176.714 290.583 141.825 306.961 125.997 314.333C110.17 306.961 75.2806 290.583 56.1917 280.7C53.7862 279.455 51.3751 278.244 48.9695 277.039C26.7973 265.889 19.8918 260.867 19.8918 251.211V54.8443L126.003 105.7L232.114 54.8443L232.103 251.211Z" fill="white"/>
</mask>
<g mask="url(#mask2_22_6976)">
<path d="M251.631 23.7998H0.358398V335.883H251.631V23.7998Z" fill="url(#paint0_linear_22_6976)"/>
</g>
</g>
</g>
</g>
<mask id="mask3_22_6976" style="mask-type:luminance" maskUnits="userSpaceOnUse" x="19" y="54" width="214" height="261">
<path d="M228.182 61.0498V251.211C228.182 258.361 223.148 262.533 201.26 273.55C198.854 274.761 196.426 275.978 194.01 277.233C175.393 286.861 141.426 302.822 125.999 310.011C110.571 302.789 76.5874 286.844 57.9874 277.233C55.5707 275.978 53.1485 274.761 50.7652 273.55C28.8763 262.533 23.8429 258.361 23.8429 251.211V61.0498L125.993 110.039L228.182 61.0498ZM125.993 105.7L19.8818 54.8442V251.211C19.8818 260.866 26.7874 265.889 48.9596 277.039C51.354 278.244 53.7652 279.455 56.1818 280.7C75.2707 290.583 110.16 306.961 125.987 314.333C141.815 306.961 176.704 290.583 195.793 280.7C198.198 279.455 200.61 278.244 203.015 277.039C225.187 265.889 232.093 260.866 232.093 251.211V54.8442L125.993 105.7Z" fill="white"/>
</mask>
<g mask="url(#mask3_22_6976)">
<path d="M183.625 -34.2351L-89.0303 114.113L68.3718 403.409L341.027 255.061L183.625 -34.2351Z" fill="url(#paint1_linear_22_6976)"/>
</g>
<mask id="mask4_22_6976" style="mask-type:luminance" maskUnits="userSpaceOnUse" x="-174" y="-132" width="600" height="600">
<path d="M426 -132H-174V468H426V-132Z" fill="white"/>
</mask>
<g mask="url(#mask4_22_6976)">
<path d="M228.184 0.117188V61.0505L126.001 110.039L23.8174 61.0505V0.117188L126.001 49.1061L228.184 0.117188Z" fill="#E37E3D"/>
<g style="mix-blend-mode:multiply">
<mask id="mask5_22_6976" style="mask-type:luminance" maskUnits="userSpaceOnUse" x="23" y="0" width="206" height="106">
<path d="M228.184 0.117188H23.8174V105.973H228.184V0.117188Z" fill="white"/>
</mask>
<g mask="url(#mask5_22_6976)">
<mask id="mask6_22_6976" style="mask-type:luminance" maskUnits="userSpaceOnUse" x="23" y="0" width="206" height="106">
<path d="M228.184 0.117188V56.9894L126.001 105.978L23.8174 56.9894V0.117188L126.001 49.1061L228.184 0.117188Z" fill="white"/>
</mask>
<g mask="url(#mask6_22_6976)">
<path d="M228.184 0.117188H23.8174V105.973H228.184V0.117188Z" fill="url(#paint2_linear_22_6976)"/>
</g>
</g>
</g>
<path d="M125.996 110.04L23.8125 61.0508V251.212C23.8125 258.362 28.8459 262.534 50.7348 273.551C53.1459 274.762 55.5681 275.979 57.957 277.234C76.557 286.856 110.54 302.823 125.968 310.012C141.39 302.79 175.363 286.851 193.979 277.234C196.396 275.979 198.824 274.762 201.229 273.551C223.118 262.534 228.151 258.362 228.151 251.212V61.0508L125.996 110.04Z" fill="#EDE9E6"/>
<g opacity="0.02">
<mask id="mask7_22_6976" style="mask-type:luminance" maskUnits="userSpaceOnUse" x="-347" y="-37" width="952" height="439">
<path d="M604.174 -36.9878H-346.781V401.062H604.174V-36.9878Z" fill="white"/>
</mask>
<g mask="url(#mask7_22_6976)">
<mask id="mask8_22_6976" style="mask-type:luminance" maskUnits="userSpaceOnUse" x="23" y="61" width="206" height="250">
<path d="M125.992 110.04L23.8086 61.0513V251.212C23.8086 258.362 28.842 262.535 50.7309 273.551C53.142 274.762 55.5642 275.979 57.9531 277.235C76.5531 286.857 110.536 302.823 125.964 310.012C141.392 302.79 175.359 286.851 193.975 277.235C196.392 275.979 198.82 274.762 201.225 273.551C223.114 262.535 228.147 258.362 228.147 251.212V61.0513L125.992 110.04Z" fill="white"/>
</mask>
<g mask="url(#mask8_22_6976)">
<path d="M603.814 -36.6377L171.831 400.712" stroke="black" stroke-width="1.8" stroke-miterlimit="10"/>
<path d="M599.31 -36.6377L167.549 400.546" stroke="black" stroke-width="1.8" stroke-miterlimit="10"/>
<path d="M594.798 -36.6377L163.265 400.379" stroke="black" stroke-width="1.8" stroke-miterlimit="10"/>
<path d="M590.293 -36.6377L158.982 400.207" stroke="black" stroke-width="1.8" stroke-miterlimit="10"/>
<path d="M585.787 -36.6377L154.698 400.04" stroke="black" stroke-width="1.8" stroke-miterlimit="10"/>
<path d="M581.283 -36.6377L150.416 399.873" stroke="black" stroke-width="1.8" stroke-miterlimit="10"/>
<path d="M576.771 -36.6377L146.132 399.707" stroke="black" stroke-width="1.8" stroke-miterlimit="10"/>
<path d="M572.266 -36.6377L141.85 399.54" stroke="black" stroke-width="1.8" stroke-miterlimit="10"/>
<path d="M567.76 -36.6377L137.565 399.373" stroke="black" stroke-width="1.8" stroke-miterlimit="10"/>
<path d="M563.255 -36.6377L133.283 399.207" stroke="black" stroke-width="1.8" stroke-miterlimit="10"/>
<path d="M558.744 -36.6377L128.999 399.035" stroke="black" stroke-width="1.8" stroke-miterlimit="10"/>
<path d="M554.237 -36.6377L124.715 398.868" stroke="black" stroke-width="1.8" stroke-miterlimit="10"/>
<path d="M549.733 -36.6377L120.433 398.701" stroke="black" stroke-width="1.8" stroke-miterlimit="10"/>
<path d="M545.226 -36.6377L116.148 398.535" stroke="black" stroke-width="1.8" stroke-miterlimit="10"/>
<path d="M540.722 -36.6377L111.866 398.368" stroke="black" stroke-width="1.8" stroke-miterlimit="10"/>
<path d="M536.21 -36.6377L107.582 398.201" stroke="black" stroke-width="1.8" stroke-miterlimit="10"/>
<path d="M531.703 -36.6377L103.298 398.035" stroke="black" stroke-width="1.8" stroke-miterlimit="10"/>
<path d="M527.199 -36.6377L99.0156 397.868" stroke="black" stroke-width="1.8" stroke-miterlimit="10"/>
<path d="M522.693 -36.6377L94.7314 397.696" stroke="black" stroke-width="1.8" stroke-miterlimit="10"/>
<path d="M518.182 -36.6377L90.4492 397.529" stroke="black" stroke-width="1.8" stroke-miterlimit="10"/>
<path d="M513.676 -36.6377L86.165 397.362" stroke="black" stroke-width="1.8" stroke-miterlimit="10"/>
<path d="M509.171 -36.6377L81.8877 397.196" stroke="black" stroke-width="1.8" stroke-miterlimit="10"/>
<path d="M504.667 -36.6377L77.6055 397.029" stroke="black" stroke-width="1.8" stroke-miterlimit="10"/>
<path d="M500.155 -36.6377L73.3213 396.862" stroke="black" stroke-width="1.8" stroke-miterlimit="10"/>
<path d="M495.647 -36.6377L69.0361 396.696" stroke="black" stroke-width="1.8" stroke-miterlimit="10"/>
<path d="M491.144 -36.6377L64.7549 396.529" stroke="black" stroke-width="1.8" stroke-miterlimit="10"/>
<path d="M486.636 -36.6377L60.4697 396.357" stroke="black" stroke-width="1.8" stroke-miterlimit="10"/>
<path d="M482.127 -36.6377L56.1885 396.19" stroke="black" stroke-width="1.8" stroke-miterlimit="10"/>
<path d="M477.62 -36.6377L51.9033 396.023" stroke="black" stroke-width="1.8" stroke-miterlimit="10"/>
<path d="M473.114 -36.6377L47.6191 395.857" stroke="black" stroke-width="1.8" stroke-miterlimit="10"/>
<path d="M468.609 -36.6377L43.3369 395.69" stroke="black" stroke-width="1.8" stroke-miterlimit="10"/>
<path d="M464.097 -36.6377L39.0527 395.523" stroke="black" stroke-width="1.8" stroke-miterlimit="10"/>
<path d="M459.593 -36.6377L34.7705 395.357" stroke="black" stroke-width="1.8" stroke-miterlimit="10"/>
<path d="M455.086 -36.6377L30.4863 395.19" stroke="black" stroke-width="1.8" stroke-miterlimit="10"/>
<path d="M450.582 -36.6377L26.2041 395.018" stroke="black" stroke-width="1.8" stroke-miterlimit="10"/>
<path d="M446.07 -36.6377L21.9199 394.851" stroke="black" stroke-width="1.8" stroke-miterlimit="10"/>
<path d="M441.566 -36.6377L17.6377 394.685" stroke="black" stroke-width="1.8" stroke-miterlimit="10"/>
<path d="M437.059 -36.6377L13.3535 394.518" stroke="black" stroke-width="1.8" stroke-miterlimit="10"/>
<path d="M432.555 -36.6377L9.07129 394.351" stroke="black" stroke-width="1.8" stroke-miterlimit="10"/>
<path d="M428.043 -36.6377L4.78711 394.185" stroke="black" stroke-width="1.8" stroke-miterlimit="10"/>
<path d="M423.538 -36.6377L0.504883 394.018" stroke="black" stroke-width="1.8" stroke-miterlimit="10"/>
<path d="M419.032 -36.6377L-3.7793 393.846" stroke="black" stroke-width="1.8" stroke-miterlimit="10"/>
<path d="M414.527 -36.6377L-8.06152 393.679" stroke="black" stroke-width="1.8" stroke-miterlimit="10"/>
<path d="M410.015 -36.6377L-12.3457 393.512" stroke="black" stroke-width="1.8" stroke-miterlimit="10"/>
<path d="M405.511 -36.6377L-16.6279 393.346" stroke="black" stroke-width="1.8" stroke-miterlimit="10"/>
<path d="M401.004 -36.6377L-20.9072 393.179" stroke="black" stroke-width="1.8" stroke-miterlimit="10"/>
<path d="M396.499 -36.6377L-25.1895 393.012" stroke="black" stroke-width="1.8" stroke-miterlimit="10"/>
<path d="M391.988 -36.6377L-29.4736 392.846" stroke="black" stroke-width="1.8" stroke-miterlimit="10"/>
<path d="M387.483 -36.6377L-33.7559 392.679" stroke="black" stroke-width="1.8" stroke-miterlimit="10"/>
<path d="M382.977 -36.6377L-38.04 392.507" stroke="black" stroke-width="1.8" stroke-miterlimit="10"/>
<path d="M378.472 -36.6377L-42.3223 392.34" stroke="black" stroke-width="1.8" stroke-miterlimit="10"/>
<path d="M373.96 -36.6377L-46.6064 392.173" stroke="black" stroke-width="1.8" stroke-miterlimit="10"/>
<path d="M369.454 -36.6377L-50.8906 392.007" stroke="black" stroke-width="1.8" stroke-miterlimit="10"/>
<path d="M364.949 -36.6377L-55.1729 391.84" stroke="black" stroke-width="1.8" stroke-miterlimit="10"/>
<path d="M360.443 -36.6377L-59.457 391.673" stroke="black" stroke-width="1.8" stroke-miterlimit="10"/>
<path d="M355.938 -36.6377L-63.7402 391.507" stroke="black" stroke-width="1.8" stroke-miterlimit="10"/>
<path d="M351.427 -36.6377L-68.0234 391.34" stroke="black" stroke-width="1.8" stroke-miterlimit="10"/>
<path d="M346.921 -36.6377L-72.3066 391.168" stroke="black" stroke-width="1.8" stroke-miterlimit="10"/>
<path d="M342.415 -36.6377L-76.5908 391.001" stroke="black" stroke-width="1.8" stroke-miterlimit="10"/>
<path d="M337.91 -36.6377L-80.873 390.835" stroke="black" stroke-width="1.8" stroke-miterlimit="10"/>
<path d="M333.398 -36.6377L-85.1572 390.668" stroke="black" stroke-width="1.8" stroke-miterlimit="10"/>
<path d="M328.894 -36.6377L-89.4395 390.501" stroke="black" stroke-width="1.8" stroke-miterlimit="10"/>
<path d="M324.387 -36.6377L-93.7236 390.335" stroke="black" stroke-width="1.8" stroke-miterlimit="10"/>
<path d="M319.882 -36.6377L-98.0068 390.168" stroke="black" stroke-width="1.8" stroke-miterlimit="10"/>
<path d="M315.371 -36.6377L-102.29 390.001" stroke="black" stroke-width="1.8" stroke-miterlimit="10"/>
<path d="M310.866 -36.6377L-106.573 389.829" stroke="black" stroke-width="1.8" stroke-miterlimit="10"/>
<path d="M306.36 -36.6377L-110.856 389.662" stroke="black" stroke-width="1.8" stroke-miterlimit="10"/>
<path d="M301.855 -36.6377L-115.14 389.496" stroke="black" stroke-width="1.8" stroke-miterlimit="10"/>
<path d="M297.342 -36.6377L-119.419 389.329" stroke="black" stroke-width="1.8" stroke-miterlimit="10"/>
<path d="M292.837 -36.6377L-123.702 389.162" stroke="black" stroke-width="1.8" stroke-miterlimit="10"/>
<path d="M288.331 -36.6377L-127.985 388.996" stroke="black" stroke-width="1.8" stroke-miterlimit="10"/>
<path d="M283.826 -36.6377L-132.269 388.829" stroke="black" stroke-width="1.8" stroke-miterlimit="10"/>
<path d="M279.315 -36.6377L-136.552 388.662" stroke="black" stroke-width="1.8" stroke-miterlimit="10"/>
<path d="M274.81 -36.6377L-140.835 388.49" stroke="black" stroke-width="1.8" stroke-miterlimit="10"/>
<path d="M270.304 -36.6377L-145.118 388.323" stroke="black" stroke-width="1.8" stroke-miterlimit="10"/>
<path d="M265.798 -36.6377L-149.402 388.157" stroke="black" stroke-width="1.8" stroke-miterlimit="10"/>
<path d="M261.287 -36.6377L-153.686 387.99" stroke="black" stroke-width="1.8" stroke-miterlimit="10"/>
<path d="M256.781 -36.6377L-157.969 387.823" stroke="black" stroke-width="1.8" stroke-miterlimit="10"/>
<path d="M252.276 -36.6377L-162.252 387.657" stroke="black" stroke-width="1.8" stroke-miterlimit="10"/>
<path d="M247.77 -36.6377L-166.535 387.49" stroke="black" stroke-width="1.8" stroke-miterlimit="10"/>
<path d="M243.259 -36.6377L-170.818 387.318" stroke="black" stroke-width="1.8" stroke-miterlimit="10"/>
<path d="M238.754 -36.6377L-175.102 387.151" stroke="black" stroke-width="1.8" stroke-miterlimit="10"/>
<path d="M234.249 -36.6377L-179.385 386.985" stroke="black" stroke-width="1.8" stroke-miterlimit="10"/>
<path d="M229.743 -36.6377L-183.668 386.818" stroke="black" stroke-width="1.8" stroke-miterlimit="10"/>
<path d="M225.232 -36.6377L-187.951 386.651" stroke="black" stroke-width="1.8" stroke-miterlimit="10"/>
<path d="M220.727 -36.6377L-192.234 386.484" stroke="black" stroke-width="1.8" stroke-miterlimit="10"/>
<path d="M216.22 -36.6377L-196.519 386.318" stroke="black" stroke-width="1.8" stroke-miterlimit="10"/>
<path d="M211.715 -36.6377L-200.802 386.151" stroke="black" stroke-width="1.8" stroke-miterlimit="10"/>
<path d="M207.204 -36.6377L-205.085 385.979" stroke="black" stroke-width="1.8" stroke-miterlimit="10"/>
<path d="M202.699 -36.6377L-209.368 385.812" stroke="black" stroke-width="1.8" stroke-miterlimit="10"/>
<path d="M198.193 -36.6377L-213.651 385.646" stroke="black" stroke-width="1.8" stroke-miterlimit="10"/>
<path d="M193.688 -36.6377L-217.929 385.479" stroke="black" stroke-width="1.8" stroke-miterlimit="10"/>
<path d="M189.177 -36.6377L-222.212 385.312" stroke="black" stroke-width="1.8" stroke-miterlimit="10"/>
<path d="M184.671 -36.6377L-226.496 385.146" stroke="black" stroke-width="1.8" stroke-miterlimit="10"/>
<path d="M180.165 -36.6377L-230.779 384.979" stroke="black" stroke-width="1.8" stroke-miterlimit="10"/>
<path d="M175.66 -36.6377L-235.062 384.812" stroke="black" stroke-width="1.8" stroke-miterlimit="10"/>
<path d="M171.154 -36.6377L-239.346 384.64" stroke="black" stroke-width="1.8" stroke-miterlimit="10"/>
<path d="M166.643 -36.6377L-243.629 384.473" stroke="black" stroke-width="1.8" stroke-miterlimit="10"/>
<path d="M162.138 -36.6377L-247.912 384.307" stroke="black" stroke-width="1.8" stroke-miterlimit="10"/>
<path d="M157.632 -36.6377L-252.195 384.14" stroke="black" stroke-width="1.8" stroke-miterlimit="10"/>
<path d="M153.127 -36.6377L-256.479 383.973" stroke="black" stroke-width="1.8" stroke-miterlimit="10"/>
<path d="M148.616 -36.6377L-260.762 383.807" stroke="black" stroke-width="1.8" stroke-miterlimit="10"/>
<path d="M144.111 -36.6377L-265.045 383.64" stroke="black" stroke-width="1.8" stroke-miterlimit="10"/>
<path d="M139.604 -36.6377L-269.329 383.473" stroke="black" stroke-width="1.8" stroke-miterlimit="10"/>
<path d="M135.099 -36.6377L-273.612 383.301" stroke="black" stroke-width="1.8" stroke-miterlimit="10"/>
<path d="M130.588 -36.6377L-277.896 383.135" stroke="black" stroke-width="1.8" stroke-miterlimit="10"/>
<path d="M126.082 -36.6377L-282.179 382.968" stroke="black" stroke-width="1.8" stroke-miterlimit="10"/>
<path d="M121.577 -36.6377L-286.462 382.801" stroke="black" stroke-width="1.8" stroke-miterlimit="10"/>
<path d="M117.072 -36.6377L-290.745 382.635" stroke="black" stroke-width="1.8" stroke-miterlimit="10"/>
<path d="M112.559 -36.6377L-295.03 382.468" stroke="black" stroke-width="1.8" stroke-miterlimit="10"/>
<path d="M108.053 -36.6377L-299.313 382.301" stroke="black" stroke-width="1.8" stroke-miterlimit="10"/>
<path d="M103.548 -36.6377L-303.597 382.129" stroke="black" stroke-width="1.8" stroke-miterlimit="10"/>
<path d="M99.0424 -36.6377L-307.88 381.962" stroke="black" stroke-width="1.8" stroke-miterlimit="10"/>
<path d="M94.5313 -36.6377L-312.163 381.796" stroke="black" stroke-width="1.8" stroke-miterlimit="10"/>
<path d="M90.0263 -36.6377L-316.44 381.629" stroke="black" stroke-width="1.8" stroke-miterlimit="10"/>
<path d="M85.5208 -36.6377L-320.724 381.462" stroke="black" stroke-width="1.8" stroke-miterlimit="10"/>
<path d="M81.0145 -36.6377L-325.008 381.296" stroke="black" stroke-width="1.8" stroke-miterlimit="10"/>
<path d="M76.5034 -36.6377L-329.291 381.129" stroke="black" stroke-width="1.8" stroke-miterlimit="10"/>
<path d="M71.998 -36.6377L-333.574 380.962" stroke="black" stroke-width="1.8" stroke-miterlimit="10"/>
<path d="M67.4926 -36.6377L-337.857 380.79" stroke="black" stroke-width="1.8" stroke-miterlimit="10"/>
<path d="M62.9872 -36.6377L-342.141 380.623" stroke="black" stroke-width="1.8" stroke-miterlimit="10"/>
<path d="M58.4762 -36.6377L-346.424 380.457" stroke="black" stroke-width="1.8" stroke-miterlimit="10"/>
</g>
</g>
</g>
<path d="M153.806 191.54H98.1895V225.695H153.806V191.54Z" fill="#C34A4F"/>
<path d="M153.896 225.778H98.1074V191.45H153.896V225.778ZM98.2796 225.606H153.724V191.623H98.2796V225.606Z" fill="#BA9B6E"/>
<path d="M155.755 247.639H96.2442V189.611H155.755V247.639ZM156.45 188.917H95.5498V248.328H156.45V188.917Z" fill="#BA9B6E"/>
<path d="M106.729 198.612H108.813V200.651C108.26 201.157 107.54 201.44 106.79 201.445C106.096 201.414 105.441 201.116 104.961 200.613C104.481 200.111 104.213 199.443 104.213 198.748C104.213 198.053 104.481 197.385 104.961 196.883C105.441 196.38 106.096 196.082 106.79 196.051C107.541 196.054 108.263 196.339 108.813 196.851L108.413 197.262C107.976 196.843 107.396 196.606 106.79 196.601C106.22 196.601 105.673 196.827 105.27 197.231C104.867 197.634 104.64 198.181 104.64 198.751C104.64 199.321 104.867 199.868 105.27 200.271C105.673 200.674 106.22 200.901 106.79 200.901C107.307 200.891 107.808 200.72 108.224 200.412V199.173H106.729V198.612Z" fill="white"/>
<path d="M110.517 196.051H109.95V201.351H110.517V196.051Z" fill="white"/>
<path d="M111.462 199.389C111.467 198.99 111.591 198.601 111.817 198.271C112.043 197.941 112.361 197.686 112.732 197.536C113.102 197.387 113.509 197.35 113.9 197.431C114.291 197.512 114.65 197.707 114.931 197.991C115.212 198.275 115.403 198.636 115.48 199.028C115.556 199.42 115.515 199.827 115.362 200.196C115.209 200.565 114.949 200.88 114.617 201.102C114.285 201.325 113.895 201.444 113.495 201.445C112.954 201.438 112.438 201.218 112.058 200.834C111.677 200.449 111.463 199.93 111.462 199.389ZM114.923 199.389C114.9 199.112 114.797 198.847 114.626 198.627C114.456 198.407 114.224 198.241 113.961 198.151C113.698 198.06 113.413 198.048 113.143 198.116C112.873 198.185 112.629 198.33 112.44 198.535C112.252 198.74 112.127 198.995 112.081 199.27C112.035 199.545 112.07 199.827 112.182 200.082C112.294 200.337 112.478 200.554 112.711 200.706C112.944 200.859 113.217 200.94 113.495 200.939C113.889 200.919 114.259 200.746 114.526 200.456C114.792 200.166 114.935 199.783 114.923 199.389Z" fill="white"/>
<path d="M120.313 199.389C120.313 200.595 119.54 201.445 118.507 201.445C118.217 201.451 117.931 201.376 117.68 201.23C117.429 201.084 117.223 200.872 117.085 200.617V201.334H116.529V196.028H117.085V198.145C117.225 197.891 117.431 197.681 117.682 197.536C117.932 197.391 118.218 197.317 118.507 197.323C119.54 197.323 120.313 198.167 120.313 199.367M119.713 199.367C119.671 199.116 119.559 198.882 119.389 198.692C119.218 198.503 118.997 198.366 118.752 198.299C118.506 198.231 118.247 198.235 118.003 198.31C117.76 198.385 117.543 198.528 117.379 198.723C117.215 198.917 117.109 199.155 117.075 199.407C117.042 199.659 117.081 199.916 117.188 200.147C117.296 200.378 117.467 200.573 117.682 200.71C117.897 200.846 118.147 200.918 118.402 200.917C118.592 200.909 118.779 200.861 118.95 200.777C119.121 200.693 119.273 200.574 119.396 200.429C119.519 200.283 119.611 200.114 119.665 199.931C119.72 199.748 119.736 199.556 119.713 199.367Z" fill="white"/>
<path d="M124.484 198.967V201.334H123.928V200.717C123.772 200.938 123.565 201.118 123.324 201.241C123.082 201.364 122.815 201.426 122.545 201.422C122.367 201.443 122.186 201.427 122.015 201.374C121.844 201.321 121.686 201.233 121.551 201.115C121.416 200.997 121.307 200.853 121.231 200.69C121.156 200.528 121.115 200.352 121.111 200.172C121.123 199.984 121.173 199.801 121.257 199.632C121.342 199.464 121.459 199.314 121.603 199.192C121.747 199.07 121.913 198.979 122.093 198.923C122.273 198.867 122.463 198.848 122.65 198.867C123.085 198.874 123.516 198.949 123.928 199.089V198.945C123.945 198.799 123.929 198.652 123.882 198.513C123.836 198.374 123.759 198.247 123.658 198.141C123.556 198.035 123.433 197.952 123.296 197.899C123.16 197.846 123.013 197.824 122.867 197.834C122.463 197.861 122.071 197.983 121.722 198.189L121.495 197.728C121.927 197.493 122.409 197.364 122.9 197.35C123.117 197.331 123.335 197.36 123.539 197.435C123.743 197.51 123.928 197.63 124.081 197.785C124.233 197.94 124.349 198.127 124.421 198.332C124.493 198.538 124.518 198.756 124.495 198.972M123.939 200.134V199.534C123.554 199.427 123.156 199.373 122.756 199.372C122.172 199.372 121.678 199.706 121.678 200.178C121.678 200.65 122.1 200.95 122.656 200.95C122.929 200.967 123.2 200.897 123.43 200.75C123.661 200.604 123.839 200.388 123.939 200.134Z" fill="white"/>
<path d="M126.21 196.051H125.644V201.351H126.21V196.051Z" fill="white"/>
<path d="M104.262 203.073H106.551C106.794 203.045 107.04 203.069 107.274 203.143C107.507 203.217 107.722 203.34 107.905 203.503C108.088 203.666 108.234 203.866 108.334 204.09C108.434 204.313 108.486 204.555 108.486 204.8C108.486 205.045 108.434 205.287 108.334 205.511C108.234 205.735 108.088 205.934 107.905 206.098C107.722 206.261 107.507 206.383 107.274 206.458C107.04 206.532 106.794 206.556 106.551 206.528H105.228V208.284H104.278L104.262 203.073ZM106.423 205.656C107.067 205.656 107.534 205.334 107.534 204.8C107.534 204.267 107.084 203.945 106.423 203.945H105.212V205.656H106.423Z" fill="white"/>
<path d="M111.551 204.267V205.056C111.376 205.037 111.198 205.054 111.029 205.108C110.861 205.161 110.705 205.249 110.573 205.367C110.44 205.484 110.334 205.628 110.26 205.788C110.187 205.949 110.148 206.124 110.146 206.301V208.284H109.224V204.362H110.146V205.117C110.273 204.855 110.473 204.634 110.722 204.484C110.972 204.333 111.26 204.258 111.551 204.267Z" fill="white"/>
<path d="M111.924 206.334C111.914 205.915 112.029 205.503 112.255 205.151C112.48 204.798 112.805 204.52 113.189 204.353C113.573 204.186 113.998 204.137 114.409 204.213C114.821 204.288 115.201 204.485 115.5 204.777C115.8 205.07 116.005 205.445 116.091 205.854C116.176 206.264 116.137 206.69 115.98 207.078C115.822 207.465 115.552 207.797 115.205 208.031C114.858 208.264 114.448 208.389 114.03 208.389C113.48 208.389 112.952 208.175 112.559 207.79C112.165 207.406 111.937 206.883 111.924 206.334ZM115.219 206.334C115.205 206.101 115.123 205.877 114.983 205.69C114.843 205.504 114.652 205.362 114.432 205.283C114.213 205.203 113.975 205.19 113.748 205.244C113.521 205.299 113.315 205.418 113.156 205.589C112.996 205.759 112.89 205.972 112.85 206.202C112.81 206.432 112.838 206.668 112.931 206.882C113.024 207.096 113.178 207.278 113.373 207.406C113.568 207.533 113.797 207.601 114.03 207.6C114.354 207.586 114.66 207.446 114.882 207.209C115.104 206.972 115.225 206.658 115.219 206.334Z" fill="white"/>
<path d="M118.111 204.362H119V205.128H118.111V208.284H117.211V205.128H116.655V204.362H117.211V203.951C117.205 203.803 117.23 203.656 117.284 203.519C117.338 203.382 117.42 203.257 117.524 203.153C117.628 203.049 117.753 202.967 117.89 202.913C118.028 202.859 118.175 202.834 118.322 202.84C118.627 202.844 118.922 202.954 119.155 203.151L118.894 203.74C118.788 203.643 118.649 203.591 118.505 203.595C118.449 203.598 118.394 203.612 118.344 203.637C118.294 203.661 118.249 203.696 118.212 203.739C118.176 203.782 118.149 203.831 118.132 203.885C118.116 203.938 118.11 203.995 118.116 204.051L118.111 204.362Z" fill="white"/>
<path d="M122.584 207.162L123.167 207.767C122.727 208.157 122.16 208.372 121.572 208.373C121.301 208.376 121.032 208.326 120.781 208.223C120.53 208.121 120.302 207.969 120.11 207.777C119.919 207.584 119.769 207.356 119.668 207.104C119.567 206.852 119.517 206.583 119.522 206.312C119.514 206.045 119.56 205.78 119.657 205.531C119.753 205.283 119.899 205.056 120.085 204.865C120.271 204.675 120.494 204.523 120.74 204.42C120.986 204.318 121.25 204.266 121.517 204.267C122.734 204.267 123.439 205.189 123.439 206.634H120.478C120.523 206.895 120.66 207.131 120.863 207.3C121.067 207.469 121.324 207.56 121.589 207.556C121.964 207.552 122.326 207.411 122.606 207.162M120.511 205.928H122.572C122.54 205.69 122.42 205.473 122.236 205.318C122.053 205.163 121.818 205.082 121.578 205.089C121.333 205.092 121.095 205.175 120.902 205.327C120.709 205.479 120.571 205.69 120.511 205.928Z" fill="white"/>
<path d="M123.978 207.784L124.394 207.14C124.772 207.426 125.231 207.583 125.705 207.59C126.078 207.59 126.333 207.434 126.333 207.19C126.333 206.945 125.994 206.79 125.544 206.667C124.694 206.445 124.161 206.206 124.15 205.506C124.139 204.806 124.755 204.267 125.628 204.267C126.164 204.279 126.686 204.443 127.133 204.74L126.744 205.417C126.415 205.196 126.03 205.071 125.633 205.056C125.311 205.056 125.078 205.19 125.078 205.406C125.078 205.623 125.278 205.734 125.878 205.906C126.478 206.078 127.25 206.317 127.25 207.14C127.25 207.962 126.628 208.373 125.711 208.373C125.091 208.373 124.488 208.166 124 207.784" fill="white"/>
<path d="M127.768 207.784L128.19 207.14C128.568 207.426 129.027 207.583 129.501 207.59C129.873 207.59 130.129 207.434 130.129 207.19C130.129 206.945 129.79 206.79 129.34 206.667C128.49 206.445 127.951 206.206 127.945 205.506C127.94 204.806 128.551 204.267 129.423 204.267C129.958 204.277 130.479 204.441 130.923 204.74L130.54 205.417C130.21 205.196 129.825 205.071 129.429 205.056C129.101 205.056 128.873 205.19 128.873 205.406C128.873 205.623 129.079 205.734 129.679 205.906C130.279 206.078 131.051 206.317 131.051 207.14C131.051 207.962 130.429 208.373 129.512 208.373C128.891 208.371 128.287 208.164 127.795 207.784" fill="white"/>
<path d="M131.768 203.239C131.805 203.128 131.875 203.031 131.97 202.963C132.065 202.894 132.179 202.857 132.296 202.857C132.413 202.857 132.527 202.894 132.622 202.963C132.716 203.031 132.787 203.128 132.824 203.239C132.851 203.323 132.858 203.411 132.845 203.498C132.831 203.585 132.797 203.667 132.746 203.739C132.694 203.81 132.627 203.868 132.548 203.908C132.47 203.947 132.384 203.968 132.296 203.968C132.208 203.968 132.121 203.947 132.043 203.908C131.965 203.868 131.897 203.81 131.846 203.739C131.794 203.667 131.76 203.585 131.747 203.498C131.733 203.411 131.741 203.323 131.768 203.239ZM131.829 204.35H132.751V208.273H131.829V204.35Z" fill="white"/>
<path d="M133.573 206.334C133.564 205.917 133.68 205.506 133.905 205.155C134.13 204.804 134.455 204.528 134.838 204.362C135.221 204.197 135.644 204.149 136.054 204.225C136.465 204.3 136.843 204.497 137.141 204.789C137.439 205.081 137.644 205.455 137.729 205.863C137.813 206.272 137.774 206.696 137.617 207.083C137.459 207.469 137.19 207.799 136.844 208.032C136.498 208.265 136.09 208.389 135.673 208.389C135.123 208.39 134.596 208.174 134.203 207.79C133.811 207.406 133.584 206.883 133.573 206.334ZM136.862 206.334C136.848 206.101 136.765 205.877 136.626 205.691C136.486 205.504 136.295 205.362 136.075 205.283C135.856 205.203 135.618 205.19 135.391 205.245C135.164 205.299 134.958 205.419 134.798 205.589C134.639 205.759 134.532 205.972 134.493 206.202C134.453 206.432 134.481 206.668 134.574 206.882C134.667 207.096 134.82 207.278 135.016 207.406C135.211 207.534 135.439 207.601 135.673 207.601C135.997 207.586 136.303 207.446 136.525 207.209C136.747 206.972 136.868 206.658 136.862 206.334Z" fill="white"/>
<path d="M142.174 205.778V208.273H141.279V205.956C141.289 205.841 141.275 205.725 141.238 205.616C141.201 205.506 141.142 205.405 141.064 205.32C140.987 205.234 140.892 205.166 140.786 205.118C140.681 205.071 140.567 205.046 140.451 205.045C140.23 205.037 140.014 205.107 139.84 205.243C139.666 205.379 139.546 205.573 139.501 205.79V208.273H138.579V204.351H139.501V204.873C139.64 204.681 139.823 204.525 140.035 204.418C140.247 204.312 140.481 204.258 140.718 204.262C140.916 204.258 141.112 204.294 141.294 204.37C141.477 204.445 141.642 204.558 141.779 204.701C141.916 204.843 142.021 205.013 142.089 205.198C142.157 205.384 142.186 205.581 142.174 205.778Z" fill="white"/>
<path d="M146.551 205.923V208.284H145.645V207.812C145.493 207.988 145.303 208.13 145.09 208.226C144.877 208.322 144.646 208.37 144.412 208.367C144.232 208.389 144.05 208.373 143.877 208.321C143.703 208.268 143.543 208.181 143.405 208.063C143.267 207.946 143.155 207.801 143.076 207.638C142.997 207.476 142.952 207.298 142.945 207.117C142.945 206.345 143.668 205.812 144.545 205.812C144.925 205.816 145.301 205.887 145.656 206.023V205.917C145.664 205.792 145.644 205.667 145.597 205.55C145.551 205.433 145.479 205.329 145.387 205.243C145.295 205.158 145.185 205.093 145.066 205.055C144.946 205.017 144.82 205.006 144.695 205.023C144.324 205.037 143.96 205.138 143.634 205.317L143.312 204.673C143.794 204.42 144.328 204.281 144.873 204.267C145.096 204.252 145.32 204.284 145.529 204.362C145.738 204.44 145.928 204.563 146.086 204.721C146.244 204.879 146.367 205.069 146.445 205.278C146.523 205.487 146.555 205.711 146.54 205.934M145.634 207.045V206.601C145.324 206.5 144.999 206.45 144.673 206.451C144.206 206.451 143.84 206.706 143.84 207.078C143.84 207.451 144.162 207.689 144.601 207.689C144.819 207.707 145.038 207.654 145.224 207.538C145.41 207.422 145.554 207.249 145.634 207.045Z" fill="white"/>
<path d="M148.495 202.978H147.567V208.278H148.495V202.978Z" fill="white"/>
<path d="M104.262 210.001H106.551C106.794 209.973 107.04 209.997 107.274 210.071C107.507 210.145 107.722 210.268 107.905 210.431C108.088 210.594 108.234 210.794 108.334 211.018C108.434 211.241 108.486 211.483 108.486 211.728C108.486 211.973 108.434 212.215 108.334 212.439C108.234 212.663 108.088 212.862 107.905 213.026C107.722 213.189 107.507 213.311 107.274 213.386C107.04 213.46 106.794 213.484 106.551 213.456H105.228V215.223H104.278L104.262 210.001ZM106.423 212.584C107.067 212.584 107.534 212.262 107.534 211.728C107.534 211.195 107.084 210.873 106.423 210.873H105.212V212.584H106.423Z" fill="white"/>
<path d="M112.584 212.85V215.223H111.684V214.75C111.53 214.927 111.34 215.068 111.126 215.164C110.912 215.26 110.68 215.308 110.445 215.306C110.266 215.327 110.084 215.31 109.912 215.258C109.739 215.205 109.579 215.117 109.442 215C109.305 214.882 109.193 214.738 109.115 214.576C109.036 214.413 108.992 214.236 108.984 214.056C108.984 213.278 109.701 212.75 110.584 212.75C110.964 212.755 111.34 212.827 111.695 212.961V212.856C111.703 212.73 111.683 212.604 111.636 212.487C111.589 212.37 111.517 212.265 111.424 212.179C111.332 212.094 111.221 212.03 111.101 211.992C110.981 211.954 110.854 211.944 110.729 211.961C110.357 211.976 109.994 212.077 109.668 212.256L109.351 211.611C109.833 211.355 110.367 211.215 110.912 211.2C111.135 211.185 111.359 211.217 111.568 211.295C111.777 211.374 111.967 211.496 112.125 211.654C112.283 211.812 112.406 212.002 112.484 212.211C112.562 212.42 112.594 212.644 112.579 212.867M111.679 213.978V213.556C111.366 213.455 111.04 213.405 110.712 213.406C110.251 213.406 109.879 213.661 109.879 214.034C109.879 214.406 110.207 214.639 110.645 214.639C110.864 214.657 111.083 214.604 111.269 214.488C111.455 214.372 111.598 214.199 111.679 213.995" fill="white"/>
<path d="M115.807 214.989C115.573 215.186 115.279 215.296 114.973 215.3C114.826 215.306 114.679 215.281 114.542 215.227C114.404 215.173 114.28 215.091 114.176 214.987C114.071 214.883 113.99 214.758 113.936 214.621C113.882 214.484 113.857 214.337 113.862 214.189V212.056H113.307V211.289H113.862V210.223H114.762V211.3H115.651V212.067H114.762V214.067C114.756 214.123 114.761 214.179 114.778 214.233C114.794 214.287 114.822 214.336 114.858 214.379C114.895 214.422 114.939 214.456 114.99 214.481C115.04 214.506 115.095 214.52 115.151 214.523C115.293 214.525 115.43 214.473 115.534 214.378L115.807 214.989Z" fill="white"/>
<path d="M120.122 212.712V215.223H119.228V212.906C119.238 212.791 119.224 212.675 119.187 212.566C119.15 212.456 119.09 212.356 119.013 212.27C118.935 212.184 118.84 212.116 118.735 212.069C118.629 212.021 118.515 211.996 118.4 211.995C118.161 211.983 117.927 212.065 117.748 212.224C117.569 212.383 117.46 212.606 117.444 212.845V215.223H116.55V209.917H117.472V211.84C117.654 211.58 117.914 211.387 118.214 211.287C118.514 211.187 118.839 211.187 119.139 211.286C119.44 211.385 119.7 211.578 119.882 211.837C120.064 212.096 120.158 212.407 120.15 212.723" fill="white"/>
<path d="M120.802 211.289H121.724L122.541 213.967L123.413 211.289H124.191L125.068 213.967L125.88 211.289H126.807L125.485 215.211H124.646L123.802 212.522L122.968 215.211H122.124L120.802 211.289Z" fill="white"/>
<path d="M130.879 212.85V215.223H129.979V214.75C129.825 214.927 129.635 215.068 129.421 215.164C129.207 215.26 128.975 215.308 128.74 215.306C128.561 215.327 128.379 215.31 128.207 215.258C128.034 215.205 127.874 215.117 127.737 215C127.6 214.882 127.488 214.738 127.41 214.576C127.331 214.413 127.287 214.236 127.279 214.056C127.279 213.278 127.996 212.75 128.879 212.75C129.259 212.755 129.635 212.827 129.99 212.961V212.856C129.998 212.73 129.978 212.604 129.931 212.487C129.884 212.37 129.812 212.265 129.719 212.179C129.627 212.094 129.516 212.03 129.396 211.992C129.276 211.954 129.149 211.944 129.024 211.961C128.652 211.976 128.289 212.077 127.963 212.256L127.646 211.611C128.127 211.355 128.662 211.215 129.207 211.2C129.43 211.185 129.654 211.217 129.863 211.295C130.072 211.374 130.262 211.496 130.42 211.654C130.578 211.812 130.701 212.002 130.779 212.211C130.857 212.42 130.889 212.644 130.874 212.867M129.974 213.978V213.556C129.661 213.455 129.335 213.405 129.007 213.406C128.546 213.406 128.174 213.661 128.174 214.034C128.174 214.406 128.502 214.639 128.94 214.639C129.159 214.657 129.377 214.604 129.564 214.488C129.75 214.372 129.893 214.199 129.974 213.995" fill="white"/>
<path d="M131.818 216.367L132.018 215.701C132.17 215.789 132.342 215.839 132.518 215.845C132.617 215.855 132.716 215.836 132.805 215.79C132.893 215.745 132.967 215.675 133.018 215.59L133.184 215.24L131.518 211.29H132.495L133.64 214.217L134.718 211.29H135.673L134.007 215.484C133.935 215.79 133.766 216.064 133.524 216.265C133.282 216.465 132.981 216.581 132.668 216.595C132.368 216.598 132.073 216.527 131.806 216.39" fill="white"/>
<path d="M104.116 219.528C104.123 218.82 104.406 218.142 104.905 217.639C105.404 217.136 106.08 216.847 106.788 216.834C107.138 216.836 107.484 216.907 107.805 217.045C108.127 217.182 108.418 217.383 108.661 217.634L108.261 218.04C108.073 217.836 107.845 217.673 107.592 217.56C107.339 217.447 107.066 217.387 106.788 217.384C106.218 217.384 105.671 217.61 105.268 218.014C104.865 218.417 104.638 218.964 104.638 219.534C104.638 220.104 104.865 220.651 105.268 221.054C105.671 221.457 106.218 221.684 106.788 221.684C107.066 221.679 107.339 221.618 107.593 221.505C107.846 221.391 108.073 221.227 108.261 221.023L108.661 221.434C108.166 221.936 107.493 222.222 106.788 222.228C106.079 222.214 105.404 221.924 104.905 221.42C104.406 220.916 104.123 220.238 104.116 219.528Z" fill="white"/>
<path d="M109.244 220.173C109.249 219.772 109.372 219.381 109.598 219.049C109.824 218.718 110.143 218.461 110.515 218.31C110.887 218.16 111.295 218.122 111.688 218.203C112.081 218.284 112.441 218.48 112.723 218.765C113.005 219.05 113.197 219.413 113.273 219.806C113.35 220.2 113.308 220.608 113.154 220.978C112.999 221.348 112.739 221.665 112.405 221.887C112.071 222.11 111.679 222.228 111.277 222.228C110.737 222.22 110.222 222 109.842 221.615C109.461 221.231 109.247 220.713 109.244 220.173ZM112.705 220.173C112.684 219.895 112.581 219.629 112.411 219.408C112.241 219.188 112.01 219.021 111.747 218.93C111.483 218.838 111.199 218.826 110.928 218.893C110.658 218.961 110.413 219.106 110.224 219.311C110.034 219.516 109.909 219.771 109.863 220.046C109.817 220.321 109.851 220.603 109.963 220.859C110.075 221.114 110.259 221.331 110.492 221.484C110.726 221.636 110.999 221.717 111.277 221.717C111.67 221.697 112.039 221.524 112.306 221.236C112.573 220.947 112.716 220.566 112.705 220.173Z" fill="white"/>
<path d="M117.572 218.217V222.14H117.016V221.506C116.883 221.729 116.695 221.912 116.468 222.039C116.242 222.166 115.987 222.231 115.728 222.228C115.529 222.234 115.331 222.198 115.147 222.124C114.963 222.049 114.796 221.937 114.658 221.794C114.519 221.651 114.412 221.481 114.343 221.295C114.274 221.109 114.244 220.91 114.255 220.712V218.217H114.811V220.634C114.795 220.773 114.808 220.914 114.85 221.048C114.891 221.181 114.961 221.305 115.054 221.41C115.147 221.515 115.261 221.599 115.388 221.656C115.516 221.714 115.654 221.744 115.794 221.745C116.087 221.766 116.376 221.673 116.602 221.485C116.827 221.298 116.972 221.031 117.005 220.739V218.245L117.572 218.217Z" fill="white"/>
<path d="M120.875 218.122V218.633C120.688 218.614 120.499 218.632 120.32 218.688C120.14 218.744 119.974 218.837 119.832 218.96C119.69 219.083 119.574 219.234 119.493 219.403C119.411 219.572 119.366 219.757 119.358 219.945V222.167H118.803V218.245H119.358V219.011C119.499 218.735 119.718 218.506 119.987 218.353C120.257 218.2 120.566 218.129 120.875 218.15" fill="white"/>
<path d="M121.428 221.645L121.722 221.228C122.102 221.528 122.566 221.701 123.05 221.723C123.567 221.723 123.917 221.478 123.917 221.106C123.917 220.734 123.461 220.551 122.928 220.395C121.983 220.117 121.617 219.839 121.617 219.284C121.624 219.116 121.667 218.951 121.742 218.8C121.816 218.649 121.921 218.515 122.05 218.406C122.179 218.298 122.329 218.217 122.49 218.169C122.652 218.121 122.822 218.107 122.989 218.128C123.491 218.137 123.979 218.291 124.394 218.573L124.122 219.012C123.793 218.787 123.409 218.658 123.011 218.639C122.572 218.639 122.211 218.834 122.211 219.195C122.211 219.556 122.494 219.639 123.222 219.873C123.856 220.073 124.505 220.284 124.505 221.028C124.505 221.773 123.883 222.212 123.072 222.212C122.482 222.201 121.912 221.996 121.45 221.628" fill="white"/>
<path d="M128.428 221.25L128.778 221.622C128.345 222.013 127.783 222.229 127.2 222.228C126.934 222.224 126.671 222.168 126.426 222.062C126.182 221.956 125.961 221.803 125.776 221.612C125.591 221.42 125.446 221.194 125.349 220.946C125.252 220.698 125.205 220.433 125.211 220.167C125.202 219.905 125.245 219.644 125.338 219.4C125.431 219.155 125.571 218.931 125.751 218.741C125.931 218.551 126.146 218.398 126.386 218.292C126.625 218.186 126.883 218.128 127.144 218.122C128.328 218.122 129.006 219.017 129.006 220.395H125.794C125.813 220.753 125.969 221.09 126.23 221.336C126.49 221.582 126.836 221.719 127.194 221.717C127.649 221.72 128.089 221.553 128.428 221.25ZM125.806 219.883H128.444C128.444 219.717 128.41 219.553 128.345 219.399C128.28 219.246 128.186 219.108 128.067 218.991C127.948 218.875 127.807 218.783 127.653 218.722C127.498 218.661 127.333 218.631 127.167 218.633C126.825 218.635 126.496 218.764 126.244 218.995C125.992 219.226 125.836 219.543 125.806 219.883Z" fill="white"/>
<path d="M136.346 236.889C136.346 232.956 139.774 229.667 143.79 229.667C144.809 229.668 145.817 229.877 146.753 230.28C147.689 230.683 148.533 231.272 149.235 232.011L147.051 233.973C146.652 233.492 146.154 233.103 145.592 232.832C145.029 232.561 144.415 232.414 143.79 232.4C142.631 232.458 141.538 232.959 140.738 233.8C139.938 234.64 139.492 235.756 139.492 236.917C139.492 238.078 139.938 239.194 140.738 240.034C141.538 240.875 142.631 241.376 143.79 241.434C144.415 241.42 145.029 241.273 145.592 241.002C146.154 240.731 146.652 240.342 147.051 239.861L149.235 241.823C148.524 242.551 147.675 243.129 146.737 243.522C145.799 243.915 144.791 244.116 143.774 244.111C141.832 244.108 139.968 243.347 138.578 241.991C137.188 240.636 136.381 238.791 136.329 236.85" fill="#BA9B6E"/>
<path d="M114.822 236.006H109.744V238.35H113.006V240.495C112.208 241.067 111.254 241.379 110.272 241.389C109.074 241.389 107.925 240.913 107.078 240.066C106.231 239.219 105.755 238.07 105.755 236.873C105.755 235.675 106.231 234.526 107.078 233.679C107.925 232.832 109.074 232.356 110.272 232.356C110.93 232.365 111.58 232.51 112.18 232.78C112.78 233.051 113.318 233.441 113.761 233.928L114.822 232.973V231.028C113.478 230.121 111.894 229.632 110.272 229.623C106.217 229.623 102.767 232.956 102.767 236.845C102.767 240.734 106.217 244.111 110.272 244.111C111.894 244.102 113.478 243.613 114.822 242.706V236.006Z" fill="#BA9B6E"/>
<path d="M125.535 231.273C124.467 230.321 123.075 229.818 121.646 229.867H115.346V243.878H118.34V239.328H121.673C123.102 239.379 124.494 238.878 125.562 237.928L125.535 231.273ZM121.346 236.578H118.368V232.623H121.346C122.835 232.623 123.857 233.395 123.857 234.6C123.857 235.806 122.835 236.578 121.346 236.578Z" fill="#BA9B6E"/>
<path d="M135.795 236.889C135.801 235.335 136.29 233.82 137.195 232.556C136.378 230.928 134.595 229.895 132.39 229.895H126.084V243.906H129.084V239.356H132.417C133.686 239.387 134.928 238.996 135.951 238.245C135.866 237.802 135.823 237.352 135.823 236.901M132.09 236.617H129.112V232.662H132.09C133.578 232.662 134.595 233.434 134.595 234.639C134.595 235.845 133.578 236.617 132.09 236.617Z" fill="#BA9B6E"/>
<path d="M148.073 225.645H103.723V225.733H148.073V225.645Z" fill="#BA9B6E"/>
</g>
<path d="M79.3779 266.222H80.7391V272.544H79.3779V266.222Z" fill="#404658"/>
<path d="M82.0547 266.222H83.4046L86.4491 270.305V266.222H87.8102V272.544H86.4491L83.4046 268.461V272.544H82.0547V266.222Z" fill="#404658"/>
<path d="M92.0168 268.994H94.7946V271.594C94.116 272.271 93.1975 272.653 92.239 272.656C91.8093 272.656 91.3838 272.571 90.9868 272.406C90.5898 272.242 90.2291 272.001 89.9253 271.697C89.6214 271.393 89.3803 271.033 89.2159 270.636C89.0514 270.239 88.9668 269.813 88.9668 269.383C88.9668 268.954 89.0514 268.528 89.2159 268.131C89.3803 267.734 89.6214 267.373 89.9253 267.07C90.2291 266.766 90.5898 266.525 90.9868 266.36C91.3838 266.196 91.8093 266.111 92.239 266.111C93.1975 266.114 94.116 266.495 94.7946 267.172L93.8112 268.056C93.6118 267.836 93.3695 267.659 93.099 267.537C92.8286 267.414 92.5358 267.349 92.239 267.344C91.6983 267.344 91.1797 267.559 90.7973 267.942C90.4149 268.324 90.2001 268.843 90.2001 269.383C90.2001 269.924 90.4149 270.443 90.7973 270.825C91.1797 271.207 91.6983 271.422 92.239 271.422C92.6819 271.416 93.1124 271.275 93.4723 271.017V270.05H92.0002L92.0168 268.994Z" fill="#404658"/>
<path d="M98.1045 271.605L98.8878 270.678C99.4547 271.2 100.195 271.495 100.966 271.505C101.643 271.505 101.993 271.189 101.993 270.794C101.993 270.4 101.627 270.205 100.66 269.983C99.3267 269.683 98.3767 269.305 98.3767 268.083C98.3767 266.861 99.3378 266.111 100.716 266.111C101.62 266.085 102.502 266.398 103.188 266.989L102.482 267.961C101.977 267.53 101.34 267.283 100.677 267.261C100.121 267.261 99.7489 267.566 99.7489 267.944C99.7489 268.405 100.127 268.55 101.099 268.772C102.46 269.078 103.366 269.478 103.366 270.65C103.366 271.822 102.454 272.655 100.91 272.655C99.8753 272.675 98.872 272.3 98.1045 271.605Z" fill="#404658"/>
<path d="M104.389 266.223H105.739V269.111L108.295 266.211H109.962L107.495 268.956L110.134 272.534H108.467L106.523 269.917L105.734 270.767V272.534H104.384L104.389 266.223Z" fill="#404658"/>
<path d="M110.789 266.222H112.15V272.544H110.789V266.222Z" fill="#404658"/>
<path d="M117.871 271.333V272.561H113.36V266.222H114.721V271.333H117.871Z" fill="#404658"/>
<path d="M123.216 271.333V272.561H118.711V266.222H120.072V271.333H123.216Z" fill="#404658"/>
<path d="M130.878 271.55H128.061L127.655 272.544H126.139L128.716 266.222H130.233L132.805 272.544H131.283L130.878 271.55ZM130.405 270.4L129.466 268.089L128.533 270.4H130.405Z" fill="#404658"/>
<path d="M133.306 269.378C133.321 268.711 133.535 268.064 133.919 267.518C134.304 266.973 134.842 266.555 135.465 266.316C136.089 266.078 136.769 266.031 137.419 266.18C138.069 266.33 138.66 266.669 139.117 267.156L138.133 268.039C137.953 267.823 137.728 267.647 137.474 267.524C137.22 267.402 136.943 267.335 136.661 267.328C136.12 267.328 135.602 267.543 135.219 267.925C134.837 268.308 134.622 268.826 134.622 269.367C134.622 269.908 134.837 270.426 135.219 270.809C135.602 271.191 136.12 271.406 136.661 271.406C136.943 271.399 137.22 271.332 137.474 271.21C137.728 271.087 137.953 270.911 138.133 270.695L139.117 271.578C138.8 271.911 138.419 272.176 137.997 272.358C137.575 272.541 137.121 272.636 136.661 272.639C135.788 272.637 134.95 272.295 134.324 271.687C133.698 271.078 133.333 270.251 133.306 269.378Z" fill="#404658"/>
<path d="M144.185 271.55H141.373L140.968 272.544H139.451L142.023 266.222H143.54L146.118 272.544H144.59L144.185 271.55ZM143.718 270.4L142.779 268.089L141.84 270.4H143.718Z" fill="#404658"/>
<path d="M146.918 266.222H149.179C151.307 266.222 152.812 267.527 152.812 269.377C152.812 271.227 151.307 272.544 149.179 272.544H146.918V266.222ZM149.357 271.311C149.622 271.331 149.889 271.296 150.14 271.208C150.392 271.121 150.622 270.982 150.818 270.801C151.013 270.62 151.169 270.401 151.275 270.157C151.382 269.913 151.437 269.649 151.437 269.383C151.437 269.117 151.382 268.853 151.275 268.609C151.169 268.365 151.013 268.146 150.818 267.965C150.622 267.784 150.392 267.645 150.14 267.558C149.889 267.47 149.622 267.435 149.357 267.455H148.246V271.333L149.357 271.311Z" fill="#404658"/>
<path d="M155.223 267.444V268.705H158.396V269.927H155.223V271.333H158.729V272.561H153.862V266.222H158.729V267.444H155.223Z" fill="#404658"/>
<path d="M159.811 266.222H161.166L163.122 269.794L165.072 266.222H166.433V272.544H165.072V268.606L163.122 272.172L161.166 268.606V272.544H159.811V266.222Z" fill="#404658"/>
<path d="M169.617 270.261L167.145 266.222H168.728L170.3 269L171.933 266.222H173.456L170.989 270.261V272.544H169.617V270.261Z" fill="#404658"/>
<path d="M97.0449 259.139C97.055 258.52 97.3061 257.929 97.745 257.492C98.1838 257.056 98.7758 256.807 99.3949 256.8C99.7062 256.801 100.014 256.864 100.3 256.986C100.587 257.108 100.846 257.287 101.062 257.511L100.595 257.961C100.445 257.79 100.26 257.652 100.054 257.557C99.847 257.461 99.6226 257.409 99.3949 257.406C98.9367 257.406 98.4972 257.588 98.1732 257.912C97.8492 258.236 97.6671 258.675 97.6671 259.133C97.6671 259.592 97.8492 260.031 98.1732 260.355C98.4972 260.679 98.9367 260.861 99.3949 260.861C99.6226 260.857 99.847 260.806 100.054 260.71C100.26 260.615 100.445 260.477 100.595 260.306L101.062 260.75C100.845 260.973 100.586 261.151 100.3 261.273C100.014 261.395 99.706 261.459 99.3949 261.461C98.779 261.453 98.1904 261.206 97.7523 260.773C97.3141 260.34 97.0607 259.755 97.0449 259.139Z" fill="#404658"/>
<path d="M103.728 257.5V258.789H106.122V259.411H103.728V260.778H106.383V261.395H103.05V256.889H106.383V257.511L103.728 257.5Z" fill="#404658"/>
<path d="M110.962 259.767L112.118 261.433H111.351L110.24 259.861H109.201V261.433H108.534V256.889H110.44C110.647 256.872 110.856 256.898 111.053 256.963C111.25 257.029 111.432 257.135 111.588 257.273C111.743 257.411 111.87 257.579 111.959 257.767C112.048 257.955 112.098 258.159 112.106 258.366C112.102 258.695 111.987 259.012 111.779 259.267C111.571 259.521 111.283 259.697 110.962 259.767ZM109.206 259.211H110.351C111.001 259.211 111.462 258.889 111.462 258.355C111.462 257.822 111.018 257.5 110.351 257.5H109.206V259.211Z" fill="#404658"/>
<path d="M115.438 257.5H113.955V256.889H117.594V257.511H116.105V261.4H115.438V257.5Z" fill="#404658"/>
<path d="M119.688 256.889H120.355V261.417H119.688V256.889Z" fill="#404658"/>
<path d="M123.338 257.5V258.817H125.738V259.439H123.338V261.406H122.66V256.889H125.993V257.511L123.338 257.5Z" fill="#404658"/>
<path d="M128.056 256.889H128.722V261.417H128.056V256.889Z" fill="#404658"/>
<path d="M131.711 257.5V258.789H134.105V259.411H131.711V260.778H134.361V261.395H131.027V256.889H134.361V257.511L131.711 257.5Z" fill="#404658"/>
<path d="M136.601 256.889H138.162C139.623 256.889 140.662 257.828 140.662 259.15C140.662 260.472 139.623 261.417 138.162 261.417H136.601V256.889ZM138.217 260.778C138.659 260.778 139.083 260.602 139.396 260.29C139.708 259.977 139.884 259.553 139.884 259.111C139.884 258.669 139.708 258.245 139.396 257.933C139.083 257.62 138.659 257.445 138.217 257.445H137.284V260.778H138.217Z" fill="#404658"/>
<path d="M146.14 256.889H148.29C148.448 256.873 148.608 256.89 148.76 256.938C148.912 256.985 149.052 257.064 149.173 257.168C149.294 257.272 149.392 257.399 149.462 257.542C149.531 257.685 149.571 257.841 149.579 258C149.582 258.212 149.522 258.42 149.408 258.598C149.293 258.776 149.128 258.916 148.934 259C149.171 259.093 149.376 259.253 149.524 259.46C149.672 259.667 149.757 259.913 149.767 260.167C149.764 260.342 149.724 260.514 149.65 260.673C149.577 260.831 149.471 260.973 149.34 261.089C149.209 261.205 149.056 261.292 148.889 261.346C148.723 261.399 148.547 261.418 148.373 261.4H146.151L146.14 256.889ZM148.123 258.778C148.218 258.796 148.317 258.792 148.41 258.768C148.504 258.743 148.592 258.699 148.666 258.637C148.741 258.574 148.801 258.497 148.842 258.409C148.883 258.321 148.905 258.225 148.905 258.128C148.905 258.031 148.883 257.935 148.842 257.847C148.801 257.76 148.741 257.682 148.666 257.62C148.592 257.558 148.504 257.513 148.41 257.488C148.317 257.464 148.218 257.46 148.123 257.478H146.806V258.778H148.123ZM148.223 260.828C148.33 260.844 148.439 260.837 148.542 260.807C148.646 260.777 148.742 260.725 148.824 260.655C148.906 260.584 148.971 260.497 149.016 260.399C149.061 260.301 149.084 260.194 149.084 260.086C149.084 259.979 149.061 259.872 149.016 259.774C148.971 259.676 148.906 259.589 148.824 259.518C148.742 259.448 148.646 259.396 148.542 259.366C148.439 259.336 148.33 259.329 148.223 259.345H146.806V260.828H148.223Z" fill="#404658"/>
<path d="M153.316 259.633L151.505 256.856H152.31L153.66 258.978L155.027 256.856H155.799L154.005 259.633V261.406H153.316V259.633Z" fill="#404658"/>
<path d="M78.3115 155.372C78.3361 154.569 78.5982 153.791 79.0647 153.136C79.5312 152.482 80.1812 151.98 80.9326 151.695C81.6839 151.41 82.503 151.353 83.2863 151.533C84.0696 151.713 84.7821 152.121 85.3338 152.706L84.1449 153.772C83.927 153.511 83.6556 153.299 83.3489 153.151C83.0422 153.004 82.7073 152.924 82.367 152.917C81.7143 152.917 81.0883 153.176 80.6268 153.638C80.1652 154.099 79.906 154.725 79.906 155.378C79.906 156.031 80.1652 156.657 80.6268 157.118C81.0883 157.58 81.7143 157.839 82.367 157.839C82.7073 157.832 83.0422 157.752 83.3489 157.604C83.6556 157.457 83.927 157.245 84.1449 156.983L85.3338 158.05C84.9506 158.452 84.4903 158.772 83.9805 158.991C83.4708 159.211 82.922 159.325 82.367 159.328C81.3094 159.325 80.2943 158.911 79.5372 158.172C78.78 157.434 78.3404 156.43 78.3115 155.372Z" fill="#404658"/>
<path d="M88.6227 156.439L85.6338 151.561H87.5449L89.4449 154.894L91.4227 151.561H93.256L90.2782 156.439V159.217H88.6116L88.6227 156.439Z" fill="#404658"/>
<path d="M94.123 151.561H98.0119C99.3786 151.561 100.323 152.361 100.323 153.472C100.33 153.829 100.232 154.179 100.043 154.481C99.8535 154.783 99.5802 155.023 99.2564 155.172C99.6585 155.321 100.007 155.587 100.256 155.935C100.506 156.284 100.645 156.699 100.656 157.128C100.656 158.35 99.6119 159.194 98.1564 159.194H94.1453L94.123 151.561ZM97.5786 154.639C98.1897 154.639 98.623 154.283 98.623 153.794C98.623 153.305 98.1897 152.961 97.5786 152.961H95.7563V154.628L97.5786 154.639ZM97.8342 157.794C97.9715 157.82 98.1129 157.816 98.2482 157.781C98.3836 157.746 98.5095 157.682 98.6172 157.593C98.7249 157.504 98.8115 157.392 98.871 157.265C98.9305 157.139 98.9613 157.001 98.9613 156.861C98.9613 156.721 98.9305 156.583 98.871 156.457C98.8115 156.33 98.7249 156.218 98.6172 156.129C98.5095 156.04 98.3836 155.976 98.2482 155.941C98.1129 155.906 97.9715 155.902 97.8342 155.928H95.7563V157.794H97.8342Z" fill="#404658"/>
<path d="M103.467 153.039V154.561H107.3V156.039H103.467V157.705H107.7V159.183H101.822V151.561H107.7V153.039H103.467Z" fill="#404658"/>
<path d="M113.533 159.194L111.789 156.717H110.578V159.194H108.944V151.561H112.378C114.044 151.561 115.255 152.628 115.255 154.139C115.26 154.67 115.094 155.189 114.782 155.619C114.47 156.049 114.029 156.367 113.522 156.528L115.4 159.194H113.533ZM110.578 155.217H112.2C113.011 155.217 113.567 154.794 113.567 154.139C113.567 153.483 113.011 153.061 112.2 153.061H110.578V155.217Z" fill="#404658"/>
<path d="M119.076 158.061L120.021 156.95C120.705 157.582 121.6 157.938 122.532 157.95C123.354 157.95 123.776 157.572 123.776 157.094C123.776 156.616 123.332 156.383 122.165 156.116C120.554 155.75 119.387 155.294 119.387 153.816C119.387 152.339 120.543 151.439 122.209 151.439C123.302 151.407 124.368 151.784 125.198 152.494L124.343 153.672C123.733 153.152 122.966 152.854 122.165 152.827C121.465 152.827 121.054 153.194 121.054 153.65C121.054 154.205 121.51 154.383 122.687 154.65C124.354 155.016 125.421 155.505 125.421 156.916C125.421 158.327 124.309 159.339 122.454 159.339C121.206 159.358 119.999 158.901 119.076 158.061Z" fill="#404658"/>
<path d="M128.256 153.039V154.561H132.089V156.039H128.256V157.705H132.489V159.183H126.611V151.561H132.489V153.039H128.256Z" fill="#404658"/>
<path d="M133.435 155.372C133.459 154.569 133.721 153.791 134.188 153.136C134.654 152.482 135.304 151.98 136.056 151.695C136.807 151.41 137.626 151.353 138.409 151.533C139.193 151.713 139.905 152.121 140.457 152.706L139.268 153.772C139.05 153.511 138.779 153.299 138.472 153.151C138.165 153.004 137.83 152.924 137.49 152.917C136.837 152.917 136.211 153.176 135.75 153.638C135.288 154.099 135.029 154.725 135.029 155.378C135.029 156.031 135.288 156.657 135.75 157.118C136.211 157.58 136.837 157.839 137.49 157.839C137.83 157.832 138.165 157.752 138.472 157.604C138.779 157.457 139.05 157.245 139.268 156.983L140.457 158.05C140.074 158.452 139.613 158.772 139.104 158.991C138.594 159.211 138.045 159.325 137.49 159.328C136.432 159.325 135.417 158.911 134.66 158.172C133.903 157.434 133.463 156.43 133.435 155.372Z" fill="#404658"/>
<path d="M141.455 155.894V151.561H143.088V155.828C143.06 156.083 143.086 156.342 143.164 156.586C143.243 156.831 143.372 157.057 143.543 157.248C143.715 157.44 143.925 157.593 144.159 157.698C144.394 157.803 144.648 157.857 144.905 157.857C145.162 157.857 145.416 157.803 145.651 157.698C145.885 157.593 146.095 157.44 146.267 157.248C146.438 157.057 146.567 156.831 146.646 156.586C146.724 156.342 146.75 156.083 146.722 155.828V151.561H148.388V155.894C148.388 156.811 148.024 157.69 147.376 158.338C146.728 158.986 145.849 159.35 144.933 159.35C144.016 159.35 143.137 158.986 142.489 158.338C141.841 157.69 141.477 156.811 141.477 155.894H141.455Z" fill="#404658"/>
<path d="M154.444 159.194L152.699 156.717H151.488V159.194H149.883V151.561H153.316C154.983 151.561 156.194 152.628 156.194 154.139C156.199 154.67 156.033 155.189 155.721 155.619C155.409 156.049 154.967 156.367 154.461 156.528L156.338 159.194H154.444ZM151.488 155.217H153.111C153.922 155.217 154.477 154.794 154.477 154.139C154.477 153.483 153.922 153.061 153.111 153.061H151.488V155.217Z" fill="#404658"/>
<path d="M157.411 151.561H159.078V159.194H157.411V151.561Z" fill="#404658"/>
<path d="M162.555 153.039H160.177V151.561H166.577V153.039H164.199V159.194H162.532L162.555 153.039Z" fill="#404658"/>
<path d="M169.956 156.439L166.967 151.561H168.878L170.778 154.894L172.756 151.561H174.589L171.611 156.439V159.217H169.945L169.956 156.439Z" fill="#404658"/>
<path d="M70.934 172.706L70.1229 171.861C69.5003 172.383 68.7128 172.666 67.9006 172.661C66.434 172.661 65.334 171.839 65.334 170.439C65.334 169.439 65.8229 168.806 67.0007 168.283C66.645 167.843 66.4491 167.294 66.4451 166.728C66.4752 166.183 66.7202 165.672 67.1264 165.308C67.5326 164.943 68.0667 164.755 68.6117 164.783C68.8816 164.762 69.153 164.796 69.4094 164.883C69.6659 164.97 69.9021 165.108 70.1036 165.288C70.3052 165.469 70.4678 165.689 70.5819 165.935C70.696 166.18 70.7591 166.446 70.7673 166.717C70.7673 167.572 70.2117 168.039 69.0228 168.595C69.3561 168.983 69.7339 169.406 70.2006 169.906C70.4988 169.467 70.7485 168.998 70.9451 168.506L72.1229 169.061C71.8249 169.681 71.4716 170.272 71.0673 170.828L72.2673 172.095L70.934 172.706ZM69.2673 170.961C68.5895 170.25 68.0895 169.683 67.7006 169.228C67.4835 169.324 67.2977 169.479 67.1642 169.676C67.0306 169.872 66.9547 170.102 66.945 170.339C66.94 170.49 66.9668 170.641 67.0236 170.781C67.0805 170.921 67.1663 171.047 67.2752 171.152C67.3842 171.257 67.514 171.338 67.6562 171.389C67.7984 171.44 67.9499 171.461 68.1006 171.45C68.5331 171.421 68.9435 171.249 69.2673 170.961ZM67.834 166.739C67.87 167.13 68.0431 167.496 68.3228 167.772C69.0673 167.472 69.3673 167.217 69.3673 166.739C69.3742 166.639 69.3603 166.538 69.3265 166.444C69.2927 166.349 69.2396 166.263 69.1707 166.19C69.1018 166.117 69.0186 166.059 68.9262 166.019C68.8339 165.98 68.7343 165.96 68.634 165.961C68.5298 165.957 68.4259 165.975 68.3286 166.012C68.2313 166.05 68.1426 166.107 68.0679 166.179C67.9931 166.252 67.9339 166.339 67.8937 166.435C67.8535 166.531 67.8332 166.635 67.834 166.739Z" fill="#404658"/>
<path d="M76.4883 164.895H79.2216C81.7883 164.895 83.6105 166.472 83.6105 168.706C83.6105 170.939 81.7883 172.528 79.2216 172.528H76.4883V164.895ZM79.4327 171.039C79.7519 171.061 80.0723 171.017 80.3738 170.91C80.6754 170.803 80.9517 170.635 81.1856 170.417C81.4195 170.199 81.6061 169.935 81.7336 169.641C81.8612 169.348 81.927 169.031 81.927 168.711C81.927 168.391 81.8612 168.075 81.7336 167.781C81.6061 167.488 81.4195 167.224 81.1856 167.005C80.9517 166.787 80.6754 166.619 80.3738 166.512C80.0723 166.405 79.7519 166.361 79.4327 166.383H78.1216V171.039H79.4327Z" fill="#404658"/>
<path d="M84.8838 164.895H86.5505V172.528H84.8838V164.895Z" fill="#404658"/>
<path d="M91.5498 168.239H94.9275V171.383C94.1074 172.201 92.9968 172.66 91.8387 172.661C90.7911 172.661 89.7863 172.245 89.0456 171.504C88.3048 170.763 87.8887 169.759 87.8887 168.711C87.8887 167.663 88.3048 166.659 89.0456 165.918C89.7863 165.177 90.7911 164.761 91.8387 164.761C92.9968 164.762 94.1074 165.221 94.9275 166.039L93.7386 167.105C93.4974 166.84 93.2043 166.628 92.8775 166.48C92.5506 166.333 92.1971 166.255 91.8387 166.25C91.1859 166.25 90.56 166.509 90.0984 166.971C89.6369 167.432 89.3775 168.058 89.3775 168.711C89.3775 169.364 89.6369 169.99 90.0984 170.451C90.56 170.913 91.1859 171.172 91.8387 171.172C92.3735 171.167 92.8935 170.996 93.3275 170.683V169.517H91.5498V168.239Z" fill="#404658"/>
<path d="M96.3447 164.895H98.0114V172.528H96.3447V164.895Z" fill="#404658"/>
<path d="M101.488 166.372H99.1104V164.895H105.51V166.372H103.133V172.528H101.466L101.488 166.372Z" fill="#404658"/>
<path d="M111.155 171.333H107.755L107.266 172.533H105.438L108.55 164.9H110.383L113.494 172.533H111.65L111.155 171.333ZM110.6 169.944L109.488 167.167L108.377 169.944H110.6Z" fill="#404658"/>
<path d="M119.778 171.05V172.528H114.328V164.895H115.995V171.05H119.778Z" fill="#404658"/>
<path d="M125.579 166.372V168.039H129.412V169.517H125.579V172.539H123.912V164.895H129.79V166.372H125.579Z" fill="#404658"/>
<path d="M130.677 168.706C130.657 167.9 130.878 167.106 131.311 166.426C131.745 165.746 132.371 165.211 133.11 164.888C133.849 164.566 134.668 164.471 135.461 164.616C136.254 164.761 136.986 165.139 137.563 165.702C138.14 166.265 138.537 166.988 138.701 167.777C138.866 168.566 138.792 169.387 138.488 170.134C138.184 170.881 137.665 171.52 136.996 171.97C136.327 172.42 135.539 172.661 134.733 172.661C133.674 172.661 132.657 172.248 131.9 171.509C131.142 170.77 130.703 169.764 130.677 168.706ZM137.11 168.706C137.092 168.241 136.937 167.792 136.666 167.415C136.394 167.038 136.018 166.748 135.584 166.583C135.149 166.418 134.676 166.384 134.222 166.485C133.769 166.587 133.355 166.819 133.032 167.154C132.709 167.488 132.492 167.91 132.407 168.367C132.323 168.825 132.374 169.296 132.555 169.725C132.736 170.153 133.039 170.518 133.426 170.775C133.814 171.033 134.268 171.171 134.733 171.172C135.371 171.151 135.976 170.881 136.419 170.42C136.862 169.96 137.108 169.345 137.105 168.706H137.11Z" fill="#404658"/>
<path d="M144.588 172.528L142.843 170.05H141.632V172.528H139.999V164.895H143.432C145.099 164.895 146.31 165.961 146.31 167.472C146.315 168.004 146.149 168.522 145.837 168.952C145.525 169.382 145.083 169.701 144.577 169.861L146.455 172.528H144.588ZM141.632 168.55H143.255C144.066 168.55 144.621 168.128 144.621 167.472C144.621 166.817 144.066 166.395 143.255 166.395H141.632V168.55Z" fill="#404658"/>
<path d="M149.179 166.372V167.895H153.012V169.372H149.179V171.039H153.412V172.517H147.534V164.895H153.412V166.372H149.179Z" fill="#404658"/>
<path d="M154.723 164.895H156.356L160.034 169.828V164.895H161.7V172.528H160.034L156.356 167.595V172.528H154.723V164.895Z" fill="#404658"/>
<path d="M162.755 171.394L163.699 170.283C164.384 170.916 165.278 171.272 166.21 171.283C167.033 171.283 167.455 170.905 167.455 170.428C167.455 169.95 167.01 169.716 165.844 169.45C164.233 169.083 163.066 168.628 163.066 167.15C163.066 165.672 164.222 164.772 165.888 164.772C166.981 164.741 168.046 165.117 168.877 165.828L168.022 167.005C167.412 166.486 166.644 166.188 165.844 166.161C165.144 166.161 164.733 166.528 164.733 166.983C164.733 167.539 165.188 167.716 166.366 167.983C168.033 168.35 169.099 168.839 169.099 170.25C169.099 171.661 167.988 172.672 166.133 172.672C164.885 172.691 163.677 172.234 162.755 171.394Z" fill="#404658"/>
<path d="M170.311 164.895H171.977V172.528H170.311V164.895Z" fill="#404658"/>
<path d="M173.178 168.705C173.202 167.902 173.464 167.124 173.931 166.469C174.397 165.815 175.047 165.313 175.799 165.028C176.55 164.743 177.369 164.686 178.153 164.866C178.936 165.046 179.648 165.454 180.2 166.039L179.011 167.105C178.793 166.844 178.522 166.632 178.215 166.484C177.908 166.337 177.574 166.257 177.233 166.25C176.581 166.25 175.955 166.509 175.493 166.971C175.031 167.432 174.772 168.058 174.772 168.711C174.772 169.364 175.031 169.99 175.493 170.451C175.955 170.913 176.581 171.172 177.233 171.172C177.574 171.165 177.908 171.085 178.215 170.937C178.522 170.79 178.793 170.578 179.011 170.316L180.2 171.383C179.817 171.785 179.356 172.105 178.847 172.324C178.337 172.544 177.788 172.658 177.233 172.661C176.176 172.658 175.161 172.244 174.403 171.505C173.646 170.767 173.207 169.763 173.178 168.705Z" fill="#404658"/>
<path d="M180.713 171.394L181.657 170.283C182.342 170.916 183.237 171.272 184.168 171.283C184.991 171.283 185.413 170.905 185.413 170.428C185.413 169.95 184.968 169.716 183.802 169.45C182.191 169.083 181.024 168.628 181.024 167.15C181.024 165.672 182.179 164.772 183.846 164.772C184.939 164.741 186.004 165.117 186.835 165.828L185.98 167.005C185.37 166.486 184.602 166.188 183.802 166.161C183.102 166.161 182.691 166.528 182.691 166.983C182.691 167.539 183.146 167.716 184.324 167.983C185.991 168.35 187.057 168.839 187.057 170.25C187.057 171.661 185.946 172.672 184.091 172.672C182.843 172.691 181.635 172.234 180.713 171.394Z" fill="#404658"/>
<mask id="mask9_22_6976" style="mask-type:luminance" maskUnits="userSpaceOnUse" x="-174" y="-132" width="600" height="600">
<path d="M426 -132H-174V468H426V-132Z" fill="white"/>
</mask>
<g mask="url(#mask9_22_6976)">
<path d="M159.152 104.234C159.152 97.924 157.281 91.7563 153.775 86.5102C150.27 81.2642 145.287 77.1755 139.458 74.7612C133.629 72.3469 127.214 71.7155 121.026 72.9469C114.838 74.1782 109.154 77.2169 104.693 81.6788C100.232 86.1406 97.1941 91.8252 95.9639 98.0135C94.7336 104.202 95.3661 110.616 97.7814 116.445C100.197 122.274 104.286 127.256 109.533 130.76C114.78 134.265 120.948 136.135 127.257 136.134C131.446 136.134 135.594 135.308 139.464 133.705C143.334 132.102 146.85 129.752 149.812 126.79C152.774 123.828 155.123 120.311 156.725 116.441C158.328 112.57 159.152 108.422 159.152 104.234Z" fill="#EDE9E6"/>
<path d="M127.257 134.261C121.323 134.261 115.523 132.502 110.59 129.205C105.656 125.909 101.811 121.224 99.5404 115.742C97.2698 110.26 96.6757 104.228 97.8333 98.4085C98.9909 92.5891 101.848 87.2436 106.044 83.0481C110.239 78.8525 115.585 75.9952 121.404 74.8377C127.224 73.6801 133.256 74.2742 138.737 76.5449C144.219 78.8155 148.904 82.6607 152.201 87.5941C155.497 92.5276 157.257 98.3278 157.257 104.261C157.241 112.213 154.075 119.834 148.452 125.457C142.83 131.079 135.208 134.245 127.257 134.261Z" fill="#E37E3D"/>
<path d="M140.439 104.567C140.371 104.672 140.276 104.757 140.163 104.811C140.05 104.865 139.924 104.886 139.8 104.873H135.994C135.522 104.873 135.372 104.723 135.367 104.267C135.338 102.833 134.956 101.429 134.255 100.178C134.165 100.055 134.113 99.9083 134.105 99.7558C134.105 99.4892 134.339 99.3281 134.661 99.3281H136.583C136.639 99.3368 136.696 99.3246 136.743 99.2938C136.79 99.2631 136.824 99.2159 136.839 99.1614C136.973 98.7903 137.224 98.4723 137.552 98.2539C137.881 98.0356 138.271 97.9285 138.666 97.9484C139.06 97.9683 139.437 98.1141 139.742 98.3645C140.048 98.6148 140.264 98.9565 140.361 99.3392C140.374 99.3706 140.391 99.4004 140.411 99.4281V100.134L140.378 100.173C140.297 100.57 140.087 100.93 139.78 101.196C139.473 101.462 139.087 101.619 138.682 101.642C138.277 101.666 137.875 101.555 137.54 101.326C137.204 101.097 136.954 100.764 136.828 100.378C136.789 100.3 136.761 100.245 136.655 100.245H135.439C135.425 100.271 135.417 100.301 135.417 100.331C135.417 100.361 135.425 100.39 135.439 100.417C135.912 101.452 136.195 102.565 136.272 103.7C136.272 103.9 136.355 103.945 136.544 103.945C137.655 103.945 138.711 103.945 139.794 103.945C139.923 103.928 140.054 103.947 140.172 104.001C140.29 104.055 140.39 104.142 140.461 104.25L140.439 104.567ZM137.661 99.7836C137.661 99.9047 137.685 100.025 137.731 100.137C137.778 100.248 137.846 100.35 137.931 100.436C138.017 100.521 138.118 100.589 138.23 100.636C138.342 100.682 138.462 100.706 138.583 100.706C138.704 100.706 138.824 100.682 138.936 100.636C139.048 100.589 139.15 100.521 139.235 100.436C139.321 100.35 139.389 100.248 139.435 100.137C139.482 100.025 139.505 99.9047 139.505 99.7836C139.505 99.539 139.408 99.3045 139.235 99.1315C139.062 98.9586 138.828 98.8614 138.583 98.8614C138.339 98.8614 138.104 98.9586 137.931 99.1315C137.758 99.3045 137.661 99.539 137.661 99.7836Z" fill="white"/>
<path d="M136.128 90.5443C136.35 90.6121 136.567 90.6956 136.778 90.7943C137.11 90.9904 137.372 91.2852 137.528 91.6377C137.684 91.9901 137.727 92.3825 137.649 92.7601C137.571 93.1377 137.377 93.4815 137.095 93.7437C136.812 94.0058 136.455 94.173 136.072 94.2221C135.675 94.2752 135.271 94.1949 134.924 93.9938C134.577 93.7927 134.307 93.4822 134.156 93.111C134.136 93.0261 134.085 92.9517 134.013 92.9023C133.941 92.853 133.853 92.8323 133.767 92.8443C132.856 92.8443 131.945 92.8443 131.033 92.8443C130.833 92.8443 130.75 92.8777 130.756 93.1054C130.756 93.8721 130.756 94.6388 130.756 95.4054C130.747 95.4797 130.764 95.5547 130.805 95.6175C130.846 95.6804 130.907 95.7272 130.978 95.7499C131.893 96.2026 132.728 96.8011 133.45 97.5221C133.711 97.7832 133.745 98.0499 133.533 98.2554C133.322 98.461 133.061 98.4388 132.8 98.1832C132.053 97.434 131.176 96.8277 130.211 96.3943C130.09 96.3543 129.987 96.274 129.918 96.1668C129.849 96.0596 129.819 95.932 129.833 95.8054C129.833 94.8332 129.833 93.861 129.833 92.8832C129.823 92.7539 129.841 92.624 129.887 92.5024C129.932 92.3809 130.003 92.2705 130.095 92.1791C130.186 92.0877 130.297 92.0173 130.419 91.973C130.541 91.9286 130.671 91.9112 130.8 91.9221H133.806C133.928 91.9221 134.039 91.9221 134.1 91.7721C134.2 91.4705 134.379 91.2006 134.617 90.9899C134.855 90.7792 135.144 90.6351 135.456 90.5721C135.456 90.5721 135.5 90.5721 135.522 90.5332L136.128 90.5443ZM135.845 93.3221C136.089 93.3221 136.324 93.2249 136.497 93.052C136.67 92.879 136.767 92.6445 136.767 92.3999C136.767 92.1553 136.67 91.9207 136.497 91.7478C136.324 91.5748 136.089 91.4777 135.845 91.4777C135.723 91.4769 135.602 91.5004 135.489 91.5469C135.377 91.5933 135.275 91.6617 135.189 91.7481C135.103 91.8344 135.035 91.9371 134.989 92.0499C134.944 92.1628 134.921 92.2836 134.922 92.4054C134.921 92.5267 134.944 92.647 134.99 92.7593C135.035 92.8716 135.103 92.9735 135.189 93.059C135.275 93.1445 135.378 93.2118 135.49 93.257C135.603 93.3022 135.723 93.3243 135.845 93.3221Z" fill="white"/>
<path d="M117.661 90.5446C117.973 90.6328 118.266 90.7758 118.528 90.9668C118.777 91.1571 118.97 91.4128 119.083 91.7057C119.144 91.9002 119.25 91.9391 119.439 91.9391C120.4 91.9391 121.366 91.9391 122.333 91.9391C122.475 91.9176 122.621 91.9298 122.758 91.9746C122.894 92.0194 123.019 92.0956 123.121 92.1972C123.223 92.2987 123.3 92.4227 123.345 92.5592C123.391 92.6958 123.404 92.8411 123.383 92.9835C123.383 93.7279 123.383 94.4779 123.383 95.2391C123.811 95.1279 124.205 95.0168 124.605 94.9224C124.666 94.8983 124.732 94.8877 124.797 94.8913C124.863 94.8949 124.927 94.9127 124.985 94.9433C125.043 94.9739 125.094 95.0166 125.134 95.0686C125.174 95.1206 125.202 95.1807 125.216 95.2446C125.232 95.3074 125.234 95.3728 125.222 95.4363C125.209 95.4998 125.184 95.56 125.146 95.6127C125.109 95.6654 125.061 95.7095 125.005 95.7418C124.949 95.7742 124.886 95.7941 124.822 95.8002C124.269 95.9276 123.726 96.0985 123.2 96.3113C122.761 96.4946 122.466 96.3113 122.461 95.8168C122.461 94.978 122.461 94.1502 122.461 93.3002C122.461 92.8502 122.461 92.8502 122.028 92.8502H119.4C119.331 92.8386 119.26 92.8541 119.202 92.8934C119.144 92.9327 119.103 92.9928 119.089 93.0613C118.934 93.46 118.645 93.7924 118.272 94.0012C117.899 94.2101 117.465 94.2824 117.044 94.2057C116.628 94.1286 116.251 93.911 115.975 93.5892C115.7 93.2675 115.544 92.8611 115.532 92.4378C115.52 92.0146 115.654 91.6001 115.911 91.2637C116.168 90.9272 116.533 90.6891 116.944 90.5891L117.094 90.5391L117.661 90.5446ZM118.272 92.3946C118.273 92.2728 118.251 92.152 118.205 92.0391C118.159 91.9263 118.091 91.8236 118.006 91.7373C117.92 91.6509 117.817 91.5825 117.705 91.5361C117.592 91.4896 117.472 91.4661 117.35 91.4668C117.104 91.4712 116.869 91.5721 116.697 91.7477C116.524 91.9233 116.428 92.1596 116.428 92.4057C116.433 92.646 116.532 92.8747 116.703 93.0436C116.874 93.2125 117.104 93.3085 117.344 93.3113C117.466 93.3135 117.586 93.2914 117.699 93.2463C117.812 93.2011 117.915 93.1339 118.001 93.0484C118.088 92.963 118.156 92.8612 118.203 92.7489C118.249 92.6366 118.273 92.5161 118.272 92.3946Z" fill="white"/>
<path d="M140.44 109.333C140.373 109.389 140.384 109.483 140.362 109.556C140.251 109.92 140.029 110.241 139.728 110.474C139.427 110.707 139.061 110.842 138.681 110.859C138.3 110.876 137.924 110.775 137.603 110.569C137.283 110.364 137.033 110.064 136.89 109.711C136.875 109.638 136.833 109.574 136.772 109.532C136.711 109.489 136.635 109.472 136.562 109.483C135.951 109.483 135.334 109.483 134.723 109.483C134.112 109.483 133.984 109.15 134.245 108.689C134.678 107.898 134.995 107.048 135.184 106.167C135.198 106.057 135.254 105.957 135.34 105.888C135.426 105.819 135.535 105.785 135.645 105.795C135.751 105.792 135.854 105.827 135.936 105.895C136.018 105.962 136.072 106.057 136.09 106.161C136.109 106.24 136.109 106.322 136.09 106.4C135.956 107.062 135.747 107.707 135.468 108.322C135.39 108.5 135.379 108.578 135.612 108.567C135.951 108.567 136.295 108.567 136.64 108.567C136.691 108.576 136.744 108.565 136.788 108.538C136.832 108.51 136.864 108.467 136.879 108.417C137.007 108.043 137.253 107.721 137.579 107.498C137.905 107.274 138.295 107.162 138.69 107.178C139.098 107.198 139.489 107.352 139.801 107.616C140.114 107.88 140.33 108.239 140.418 108.639C140.428 108.673 140.441 108.707 140.456 108.739L140.44 109.333ZM138.601 109.945C138.723 109.945 138.843 109.92 138.956 109.873C139.068 109.826 139.17 109.757 139.255 109.67C139.34 109.583 139.408 109.48 139.453 109.367C139.498 109.254 139.52 109.133 139.518 109.011C139.518 108.767 139.42 108.532 139.247 108.359C139.074 108.186 138.84 108.089 138.595 108.089C138.351 108.089 138.116 108.186 137.943 108.359C137.77 108.532 137.673 108.767 137.673 109.011C137.672 109.133 137.696 109.253 137.742 109.365C137.789 109.478 137.857 109.58 137.944 109.665C138.03 109.75 138.133 109.818 138.246 109.863C138.359 109.908 138.479 109.93 138.601 109.928" fill="white"/>
<path d="M126.761 90.5444C126.869 90.6164 126.954 90.7169 127.008 90.8346C127.062 90.9522 127.082 91.0826 127.067 91.2111C127.067 92.3222 127.067 93.3722 127.067 94.4555C127.067 94.6611 127.122 94.7333 127.333 94.7444C127.706 94.7722 128.083 94.8222 128.445 94.8833C128.51 94.8842 128.575 94.8991 128.634 94.927C128.694 94.955 128.747 94.9952 128.789 95.0452C128.832 95.0952 128.863 95.1537 128.881 95.2168C128.9 95.2799 128.904 95.3461 128.895 95.4111C128.886 95.474 128.865 95.5345 128.832 95.5885C128.798 95.6425 128.754 95.6888 128.701 95.7245C128.649 95.7602 128.59 95.7844 128.527 95.7955C128.465 95.8066 128.4 95.8043 128.339 95.7889C127.788 95.6948 127.231 95.641 126.672 95.6278C126.339 95.6278 126.183 95.4278 126.183 95.0722C126.183 94.1222 126.183 93.1778 126.183 92.2333C126.183 91.8889 126.183 91.55 126.183 91.2055C126.168 91.081 126.189 90.9549 126.243 90.8417C126.298 90.7286 126.383 90.6332 126.489 90.5667L126.761 90.5444Z" fill="white"/>
<path d="M126.611 96.5503C128.165 96.5525 129.684 97.0156 130.974 97.8811C132.265 98.7467 133.27 99.9756 133.863 101.413C134.455 102.849 134.608 104.43 134.301 105.953C133.995 107.477 133.244 108.876 132.143 109.972C131.041 111.069 129.64 111.814 128.115 112.114C126.59 112.414 125.01 112.254 123.576 111.656C122.141 111.058 120.917 110.047 120.056 108.753C119.196 107.458 118.74 105.938 118.744 104.384C118.752 102.303 119.584 100.309 121.058 98.841C122.533 97.3726 124.53 96.5488 126.611 96.5503ZM126.611 111.334C127.982 111.334 129.322 110.927 130.462 110.166C131.602 109.404 132.491 108.321 133.016 107.055C133.541 105.788 133.678 104.394 133.411 103.05C133.144 101.705 132.485 100.47 131.515 99.4996C130.546 98.5298 129.311 97.869 127.967 97.6008C126.622 97.3327 125.228 97.4692 123.961 97.9931C122.694 98.517 121.611 99.4049 120.849 100.544C120.086 101.684 119.679 103.024 119.678 104.395C119.676 106.233 120.404 107.996 121.702 109.297C123 110.598 124.762 111.331 126.6 111.334" fill="white"/>
<path d="M120.906 116.889C120.401 116.889 119.895 116.889 119.39 116.889C119.317 116.876 119.242 116.892 119.181 116.933C119.119 116.975 119.077 117.039 119.062 117.111C118.911 117.502 118.631 117.829 118.268 118.038C117.905 118.248 117.481 118.326 117.068 118.261C116.638 118.198 116.244 117.985 115.956 117.66C115.667 117.335 115.503 116.919 115.492 116.484C115.481 116.05 115.623 115.626 115.894 115.286C116.165 114.946 116.547 114.713 116.973 114.628C117.394 114.538 117.834 114.6 118.213 114.803C118.593 115.007 118.888 115.338 119.045 115.739C119.066 115.822 119.118 115.894 119.191 115.941C119.263 115.987 119.35 116.004 119.434 115.989C120.356 115.989 121.279 115.989 122.212 115.989C122.406 115.989 122.456 115.934 122.456 115.745C122.456 114.978 122.456 114.211 122.456 113.445C122.465 113.366 122.446 113.287 122.404 113.221C122.361 113.154 122.298 113.104 122.223 113.078C121.115 112.523 120.126 111.756 119.312 110.822C119.084 110.567 119.068 110.295 119.268 110.106C119.468 109.917 119.751 109.928 119.995 110.206C120.835 111.151 121.865 111.909 123.018 112.428C123.129 112.47 123.225 112.546 123.29 112.646C123.355 112.746 123.386 112.864 123.379 112.984C123.379 113.967 123.379 114.95 123.379 115.939C123.385 116.064 123.365 116.188 123.321 116.304C123.276 116.421 123.208 116.527 123.12 116.615C123.032 116.703 122.926 116.772 122.81 116.818C122.694 116.863 122.57 116.884 122.445 116.878C121.94 116.878 121.434 116.878 120.929 116.878L120.906 116.889ZM118.273 116.439C118.276 116.317 118.255 116.196 118.21 116.083C118.165 115.97 118.098 115.867 118.012 115.78C117.926 115.694 117.824 115.625 117.712 115.579C117.599 115.533 117.478 115.51 117.356 115.511C117.111 115.511 116.876 115.608 116.702 115.781C116.529 115.954 116.43 116.188 116.429 116.434C116.434 116.674 116.532 116.904 116.701 117.076C116.87 117.247 117.099 117.347 117.34 117.356C117.461 117.357 117.582 117.335 117.695 117.289C117.808 117.244 117.91 117.177 117.997 117.092C118.084 117.006 118.153 116.905 118.2 116.793C118.248 116.681 118.272 116.561 118.273 116.439Z" fill="white"/>
<path d="M129.833 114.461C129.833 113.972 129.833 113.483 129.833 113C129.818 112.873 129.846 112.745 129.914 112.636C129.982 112.528 130.085 112.446 130.205 112.405C131.17 111.974 132.048 111.369 132.794 110.622C133.056 110.366 133.35 110.344 133.528 110.55C133.706 110.755 133.694 111.028 133.439 111.283C132.723 111.997 131.895 112.59 130.989 113.039C130.911 113.068 130.845 113.123 130.803 113.195C130.761 113.267 130.744 113.351 130.755 113.433C130.755 114.178 130.755 114.928 130.755 115.655C130.755 115.855 130.789 115.939 131.017 115.933C131.956 115.933 132.889 115.933 133.828 115.933C133.893 115.942 133.959 115.928 134.014 115.892C134.069 115.856 134.11 115.802 134.128 115.739C134.279 115.329 134.573 114.987 134.955 114.775C135.337 114.563 135.783 114.495 136.211 114.583C136.645 114.669 137.033 114.908 137.306 115.256C137.578 115.604 137.716 116.038 137.696 116.48C137.675 116.921 137.496 117.34 137.192 117.661C136.888 117.982 136.479 118.183 136.039 118.228C135.636 118.271 135.231 118.18 134.885 117.969C134.54 117.758 134.273 117.439 134.128 117.061C134.112 116.993 134.071 116.934 134.013 116.895C133.956 116.856 133.885 116.84 133.817 116.85H130.894C130.75 116.87 130.602 116.857 130.464 116.81C130.325 116.764 130.2 116.686 130.097 116.582C129.993 116.479 129.916 116.353 129.87 116.214C129.825 116.075 129.812 115.928 129.833 115.783V114.433M134.922 116.4C134.922 116.522 134.946 116.642 134.993 116.754C135.041 116.867 135.11 116.969 135.197 117.054C135.283 117.139 135.386 117.206 135.5 117.251C135.613 117.297 135.734 117.319 135.856 117.316C136.096 117.309 136.325 117.209 136.494 117.037C136.663 116.866 136.758 116.635 136.761 116.394C136.762 116.272 136.738 116.152 136.692 116.039C136.645 115.927 136.577 115.824 136.491 115.738C136.404 115.653 136.302 115.585 136.189 115.539C136.076 115.493 135.955 115.471 135.833 115.472C135.712 115.47 135.591 115.493 135.479 115.54C135.367 115.586 135.265 115.655 135.18 115.741C135.094 115.828 135.028 115.931 134.984 116.044C134.939 116.157 134.918 116.278 134.922 116.4Z" fill="white"/>
<path d="M117.557 100.222C117.252 100.222 116.946 100.222 116.641 100.222C116.563 100.207 116.483 100.222 116.417 100.265C116.351 100.307 116.304 100.374 116.285 100.45C116.128 100.845 115.838 101.173 115.464 101.376C115.09 101.579 114.658 101.644 114.241 101.561C113.828 101.482 113.455 101.265 113.183 100.946C112.91 100.626 112.755 100.223 112.743 99.8034C112.731 99.3837 112.862 98.9724 113.115 98.6374C113.368 98.3025 113.728 98.0638 114.135 97.9611C114.567 97.8525 115.023 97.9056 115.418 98.1103C115.813 98.315 116.119 98.6571 116.279 99.0722C116.298 99.1515 116.347 99.2206 116.415 99.2651C116.483 99.3096 116.566 99.3261 116.646 99.311C117.135 99.311 117.624 99.311 118.107 99.311C118.182 99.3194 118.258 99.3047 118.325 99.269C118.391 99.2333 118.445 99.1782 118.479 99.1111C119.072 98.1811 119.825 97.363 120.702 96.6944C120.772 96.6221 120.864 96.5732 120.963 96.5543C121.062 96.5355 121.165 96.5475 121.257 96.5888C121.334 96.6233 121.4 96.6784 121.447 96.7478C121.494 96.8173 121.521 96.8985 121.525 96.9825C121.529 97.0664 121.51 97.1499 121.47 97.2235C121.429 97.2972 121.369 97.3583 121.296 97.4C120.628 97.9112 120.037 98.5155 119.541 99.1944C119.368 99.4333 119.207 99.6833 119.052 99.9333C119.001 100.034 118.92 100.116 118.821 100.17C118.721 100.223 118.608 100.246 118.496 100.233C118.179 100.233 117.863 100.233 117.546 100.233M115.491 99.7722C115.473 99.5407 115.368 99.3245 115.197 99.1668C115.027 99.0091 114.803 98.9215 114.571 98.9215C114.339 98.9215 114.115 99.0091 113.945 99.1668C113.774 99.3245 113.67 99.5407 113.652 99.7722C113.642 99.8989 113.658 100.026 113.7 100.146C113.742 100.267 113.808 100.377 113.894 100.47C113.981 100.563 114.085 100.638 114.202 100.689C114.318 100.74 114.444 100.766 114.571 100.766C114.698 100.766 114.824 100.74 114.941 100.689C115.057 100.638 115.162 100.563 115.248 100.47C115.334 100.377 115.401 100.267 115.442 100.146C115.484 100.026 115.5 99.8989 115.491 99.7722Z" fill="white"/>
<path d="M117.822 108.556C117.537 107.937 117.314 107.291 117.156 106.628C117.156 106.539 117.111 106.45 117.095 106.367C117.066 106.249 117.085 106.125 117.147 106.021C117.21 105.917 117.31 105.841 117.428 105.811C117.489 105.795 117.552 105.792 117.614 105.802C117.676 105.812 117.736 105.835 117.788 105.869C117.841 105.904 117.885 105.949 117.919 106.003C117.953 106.056 117.975 106.116 117.983 106.178C118.096 106.669 118.243 107.152 118.422 107.622C118.568 107.991 118.739 108.349 118.933 108.695C119.178 109.15 118.983 109.483 118.472 109.489H116.6C116.532 109.476 116.462 109.489 116.404 109.526C116.346 109.564 116.305 109.622 116.289 109.689C116.129 110.109 115.821 110.457 115.422 110.666C115.024 110.875 114.563 110.931 114.126 110.824C113.689 110.717 113.306 110.454 113.05 110.084C112.793 109.714 112.681 109.264 112.733 108.817C112.78 108.378 112.98 107.97 113.298 107.665C113.616 107.36 114.032 107.178 114.472 107.15C114.859 107.129 115.241 107.231 115.567 107.44C115.892 107.65 116.143 107.957 116.283 108.317C116.35 108.483 116.422 108.55 116.606 108.545C116.995 108.545 117.383 108.545 117.817 108.545M115.495 109.006C115.495 108.885 115.472 108.764 115.426 108.652C115.381 108.54 115.313 108.438 115.228 108.352C115.143 108.266 115.042 108.197 114.93 108.15C114.819 108.103 114.699 108.079 114.578 108.078C114.332 108.081 114.098 108.18 113.925 108.355C113.752 108.53 113.656 108.766 113.656 109.011C113.674 109.243 113.778 109.459 113.949 109.617C114.119 109.774 114.343 109.862 114.575 109.862C114.807 109.862 115.031 109.774 115.201 109.617C115.372 109.459 115.477 109.243 115.495 109.011" fill="white"/>
<path d="M126.133 116.017C126.133 115.461 126.133 114.906 126.133 114.311C126.133 114.139 126.083 114.083 125.911 114.067C125.522 114.033 125.139 113.983 124.755 113.928C124.372 113.872 124.233 113.656 124.283 113.372C124.293 113.305 124.318 113.24 124.356 113.184C124.394 113.127 124.444 113.079 124.502 113.043C124.56 113.008 124.625 112.986 124.693 112.978C124.761 112.971 124.83 112.978 124.894 113C126.014 113.211 127.163 113.211 128.283 113C128.346 112.979 128.412 112.972 128.477 112.979C128.543 112.986 128.606 113.007 128.662 113.041C128.719 113.075 128.767 113.12 128.805 113.175C128.842 113.229 128.867 113.291 128.878 113.356C128.928 113.644 128.761 113.856 128.428 113.911C128.094 113.967 127.767 113.994 127.439 114.033C127 114.083 127.061 114.033 127.061 114.433C127.061 115.461 127.061 116.489 127.061 117.517V117.733C127.061 118.044 126.867 118.233 126.605 118.239C126.539 118.241 126.474 118.229 126.413 118.203C126.352 118.178 126.298 118.139 126.253 118.091C126.208 118.042 126.174 117.985 126.154 117.922C126.133 117.86 126.126 117.793 126.133 117.728C126.133 117.172 126.133 116.572 126.133 115.994V116.017Z" fill="white"/>
<path d="M115.267 104.867H113.217C113.095 104.867 112.977 104.818 112.891 104.732C112.804 104.645 112.756 104.528 112.756 104.405C112.756 104.283 112.804 104.166 112.891 104.079C112.977 103.993 113.095 103.944 113.217 103.944H113.456C114.495 103.944 115.534 103.944 116.567 103.944C116.828 103.944 116.906 103.878 116.923 103.622C116.966 102.893 117.102 102.172 117.328 101.478C117.434 101.133 117.667 100.978 117.939 101.072C118.211 101.167 118.311 101.405 118.206 101.761C117.951 102.58 117.816 103.431 117.806 104.289C117.806 104.694 117.639 104.844 117.25 104.844L115.267 104.867Z" fill="white"/>
<path d="M130.49 104.411C130.51 105.05 130.481 105.689 130.401 106.322C130.21 107.214 129.711 108.009 128.992 108.57C128.274 109.131 127.381 109.422 126.469 109.391C125.558 109.361 124.687 109.011 124.007 108.404C123.328 107.796 122.883 106.969 122.751 106.067C122.704 105.611 122.693 105.152 122.718 104.694C122.689 104.035 122.702 103.375 122.757 102.717C122.895 101.811 123.348 100.984 124.036 100.379C124.724 99.7753 125.604 99.4334 126.52 99.4142C127.435 99.3949 128.328 99.6995 129.041 100.274C129.755 100.849 130.242 101.657 130.418 102.556C130.489 103.171 130.513 103.792 130.49 104.411ZM130.007 104.411C130.007 103.856 130.04 103.3 129.962 102.745C129.841 101.959 129.448 101.242 128.852 100.716C128.256 100.19 127.495 99.8898 126.701 99.8667C125.913 99.8325 125.138 100.079 124.515 100.562C123.891 101.045 123.459 101.734 123.296 102.506C123.151 103.643 123.129 104.792 123.229 105.933C123.237 106.046 123.255 106.158 123.285 106.267C123.471 107.028 123.915 107.702 124.541 108.174C125.167 108.647 125.936 108.888 126.72 108.859C127.503 108.83 128.253 108.531 128.841 108.013C129.43 107.495 129.822 106.79 129.951 106.017C130.029 105.461 129.951 104.906 129.996 104.383" fill="white"/>
<path d="M126.646 108.556C126.025 108.57 125.416 108.391 124.901 108.045C124.707 107.917 124.662 107.778 124.757 107.645C124.851 107.511 124.979 107.517 125.168 107.645C125.52 107.88 125.925 108.026 126.346 108.068C126.768 108.109 127.193 108.046 127.584 107.884C127.976 107.722 128.321 107.466 128.59 107.138C128.858 106.81 129.041 106.421 129.123 106.006C129.153 105.867 129.172 105.725 129.179 105.583C129.179 105.361 129.268 105.261 129.429 105.267C129.59 105.272 129.673 105.395 129.662 105.622C129.632 106.248 129.41 106.85 129.028 107.346C128.646 107.843 128.121 108.211 127.523 108.4C127.241 108.498 126.944 108.545 126.646 108.539" fill="white"/>
<path d="M126.846 105.778C126.846 106.089 126.668 106.2 126.384 106.078C126.28 106.044 126.189 105.978 126.124 105.889C126.059 105.8 126.024 105.693 126.023 105.583C126.023 104.833 126.023 104.078 126.023 103.322C126.023 103.111 126.162 103.056 126.351 103.078C126.351 102.922 126.351 102.761 126.573 102.728C126.71 102.716 126.846 102.754 126.956 102.836C127.065 102.918 127.141 103.038 127.168 103.172C127.176 103.252 127.176 103.332 127.168 103.411V105.433C127.168 105.717 127.107 105.772 126.829 105.778M126.685 104.483V103.439C126.69 103.385 126.69 103.331 126.685 103.278C126.685 103.206 126.59 103.206 126.529 103.206C126.468 103.206 126.496 103.261 126.496 103.294C126.496 104 126.496 104.706 126.496 105.411C126.487 105.463 126.487 105.515 126.496 105.567C126.496 105.644 126.585 105.644 126.646 105.639C126.707 105.633 126.679 105.572 126.679 105.533V104.483" fill="white"/>
<path d="M126.611 100.223C127.152 100.223 127.682 100.368 128.148 100.643C128.614 100.917 128.998 101.311 129.261 101.784C129.301 101.83 129.323 101.889 129.323 101.95C129.323 102.012 129.301 102.071 129.261 102.117C129.228 102.156 129.182 102.183 129.131 102.192C129.08 102.201 129.028 102.192 128.983 102.167C128.905 102.139 128.878 102.073 128.839 102.006C128.601 101.58 128.244 101.231 127.812 101.003C127.38 100.776 126.892 100.678 126.405 100.723C125.827 100.757 125.28 100.995 124.861 101.395L124.733 101.517C124.712 101.544 124.685 101.565 124.654 101.58C124.623 101.595 124.589 101.603 124.555 101.603C124.521 101.603 124.487 101.595 124.457 101.58C124.426 101.565 124.399 101.544 124.378 101.517C124.351 101.495 124.329 101.468 124.314 101.437C124.3 101.405 124.292 101.371 124.292 101.337C124.292 101.302 124.3 101.268 124.314 101.237C124.329 101.205 124.351 101.178 124.378 101.156C124.774 100.739 125.281 100.442 125.839 100.301C126.088 100.238 126.343 100.206 126.6 100.206" fill="white"/>
<path d="M128.833 104.006C128.833 104.306 128.833 104.611 128.833 104.911C128.833 105.078 128.777 105.194 128.6 105.206C128.422 105.217 128.35 105.106 128.35 104.906C128.35 104.394 128.35 103.883 128.35 103.372C128.363 103.138 128.329 102.903 128.25 102.682C128.17 102.461 128.047 102.258 127.887 102.086C127.727 101.913 127.534 101.775 127.32 101.679C127.105 101.583 126.874 101.532 126.639 101.528C126.472 101.528 126.361 101.45 126.366 101.278C126.372 101.106 126.494 101.044 126.661 101.044C127.212 101.057 127.739 101.273 128.139 101.652C128.54 102.031 128.785 102.545 128.827 103.094C128.827 103.4 128.827 103.7 128.827 104.006H128.833Z" fill="white"/>
<path d="M124.368 105.306V104.878C124.368 104.722 124.434 104.611 124.596 104.606C124.757 104.6 124.846 104.722 124.851 104.883C124.857 105.045 124.851 105.356 124.851 105.589C124.871 106.044 125.069 106.473 125.401 106.784C125.733 107.096 126.174 107.265 126.629 107.256C126.879 107.249 127.125 107.191 127.351 107.083C127.54 106.995 127.685 107.033 127.74 107.183C127.796 107.333 127.69 107.456 127.546 107.528C127.214 107.687 126.849 107.762 126.481 107.745C126.114 107.728 125.756 107.621 125.441 107.432C125.126 107.243 124.862 106.979 124.674 106.663C124.485 106.347 124.378 105.99 124.362 105.622V105.3L124.368 105.306Z" fill="white"/>
<path d="M123.535 104.295C123.505 103.738 123.531 103.179 123.612 102.628C123.649 102.465 123.699 102.305 123.762 102.15C123.771 102.118 123.785 102.088 123.806 102.062C123.826 102.036 123.851 102.014 123.881 101.999C123.91 101.983 123.942 101.974 123.975 101.971C124.008 101.968 124.041 101.973 124.072 101.983C124.103 101.994 124.132 102.011 124.156 102.034C124.18 102.056 124.2 102.083 124.213 102.114C124.226 102.144 124.233 102.177 124.233 102.21C124.233 102.243 124.226 102.275 124.212 102.306C124.033 102.842 123.967 103.409 124.018 103.972C124.018 104.6 123.985 105.228 124.018 105.85C124.043 106.064 124.099 106.274 124.185 106.472C124.246 106.628 124.223 106.761 124.057 106.822C123.89 106.883 123.796 106.822 123.729 106.65C123.587 106.296 123.512 105.92 123.507 105.539C123.507 105.161 123.507 104.783 123.507 104.306" fill="white"/>
<path d="M125.673 104.733C125.673 104.983 125.673 105.233 125.673 105.478C125.667 105.642 125.705 105.804 125.783 105.949C125.862 106.093 125.977 106.214 126.117 106.299C126.258 106.384 126.418 106.429 126.582 106.432C126.746 106.434 126.908 106.392 127.051 106.311C127.09 106.284 127.134 106.266 127.181 106.257C127.228 106.248 127.276 106.25 127.323 106.261C127.364 106.274 127.401 106.299 127.429 106.332C127.457 106.366 127.474 106.407 127.478 106.45C127.484 106.504 127.472 106.559 127.445 106.607C127.419 106.655 127.378 106.693 127.328 106.717C127.017 106.905 126.645 106.965 126.29 106.886C125.934 106.806 125.624 106.592 125.423 106.289C125.273 106.071 125.192 105.814 125.189 105.55C125.189 105.013 125.189 104.474 125.189 103.933C125.189 103.739 125.284 103.622 125.434 103.633C125.584 103.644 125.673 103.761 125.673 103.922C125.673 104.194 125.673 104.478 125.673 104.733Z" fill="white"/>
<path d="M126.661 101.889C126.886 101.899 127.104 101.964 127.298 102.078C127.492 102.192 127.655 102.353 127.772 102.545C127.861 102.683 127.894 102.822 127.772 102.939C127.65 103.056 127.516 102.989 127.4 102.822C127.298 102.649 127.142 102.514 126.957 102.438C126.771 102.361 126.565 102.347 126.371 102.398C126.177 102.449 126.005 102.562 125.88 102.72C125.756 102.878 125.687 103.072 125.683 103.272C125.683 103.439 125.594 103.545 125.416 103.533C125.239 103.522 125.194 103.389 125.2 103.228C125.223 102.857 125.389 102.51 125.664 102.26C125.939 102.01 126.301 101.877 126.672 101.889" fill="white"/>
<path d="M124.362 103.467C124.333 103.077 124.405 102.686 124.573 102.332C124.74 101.979 124.997 101.675 125.317 101.45C125.376 101.403 125.441 101.365 125.512 101.339C125.538 101.327 125.566 101.32 125.594 101.319C125.623 101.318 125.651 101.322 125.678 101.332C125.705 101.342 125.73 101.357 125.751 101.376C125.772 101.395 125.789 101.419 125.801 101.445C125.831 101.491 125.843 101.546 125.835 101.6C125.827 101.655 125.799 101.704 125.756 101.739C125.725 101.765 125.692 101.787 125.656 101.806C125.405 101.965 125.199 102.186 125.058 102.448C124.917 102.709 124.845 103.003 124.851 103.3C124.851 103.5 124.851 103.7 124.851 103.906C124.851 104.111 124.795 104.2 124.606 104.217C124.417 104.234 124.367 104.111 124.367 103.911C124.367 103.711 124.367 103.634 124.367 103.467" fill="white"/>
<path d="M128.012 104.467V105.494C128.016 105.686 127.978 105.875 127.901 106.05C127.892 106.08 127.878 106.107 127.859 106.131C127.84 106.155 127.816 106.175 127.789 106.189C127.762 106.204 127.733 106.213 127.702 106.216C127.672 106.218 127.641 106.215 127.612 106.206C127.58 106.2 127.549 106.187 127.522 106.168C127.496 106.149 127.474 106.124 127.458 106.095C127.443 106.066 127.434 106.034 127.433 106.001C127.431 105.968 127.438 105.936 127.451 105.906C127.524 105.632 127.55 105.349 127.528 105.067V103.4C127.528 103.183 127.612 103.072 127.773 103.078C127.934 103.083 128.012 103.194 128.012 103.406V104.517" fill="white"/>
<path d="M129.667 103.639V104.289C129.671 104.325 129.669 104.361 129.659 104.396C129.649 104.43 129.632 104.462 129.609 104.49C129.586 104.517 129.557 104.54 129.525 104.556C129.493 104.572 129.458 104.582 129.422 104.584C129.272 104.584 129.183 104.478 129.178 104.284C129.203 103.84 129.203 103.394 129.178 102.95C129.178 102.834 129.133 102.711 129.106 102.595C129.056 102.384 129.106 102.25 129.256 102.211C129.406 102.173 129.517 102.256 129.578 102.461C129.672 102.847 129.711 103.243 129.695 103.639" fill="white"/>
<path d="M128.828 105.639C128.812 106.017 128.695 106.383 128.489 106.7C128.406 106.833 128.295 106.911 128.139 106.828C127.984 106.745 127.972 106.617 128.078 106.445C128.237 106.196 128.329 105.911 128.345 105.617C128.345 105.367 128.445 105.261 128.617 105.272C128.789 105.283 128.839 105.394 128.828 105.639Z" fill="white"/>
</g>
</g>
<defs>
<linearGradient id="paint0_linear_22_6976" x1="120.199" y1="184.22" x2="381.143" y2="184.22" gradientUnits="userSpaceOnUse">
<stop stop-color="white"/>
<stop offset="1" stop-color="#231F20"/>
</linearGradient>
<linearGradient id="paint1_linear_22_6976" x1="468.512" y1="2.73034" x2="-659.739" y2="616.597" gradientUnits="userSpaceOnUse">
<stop stop-color="white"/>
<stop offset="1" stop-color="#231F20"/>
</linearGradient>
<linearGradient id="paint2_linear_22_6976" x1="121.609" y1="52.4339" x2="121.609" y2="175.073" gradientUnits="userSpaceOnUse">
<stop stop-color="white"/>
<stop offset="1" stop-color="#231F20"/>
</linearGradient>
<clipPath id="clip0_22_6976">
<rect width="252" height="336" fill="white"/>
</clipPath>
</defs>
</svg>
